<mxfile host="app.diagrams.net" agent="Mozilla/5.0 (Windows NT 10.0; Win64; x64) AppleWebKit/537.36 (KHTML, like Gecko) Chrome/141.0.0.0 Safari/537.36" version="28.2.7">
  <diagram name="Страница — 1" id="uD4GJfySHqPJqUIsltjj">
    <mxGraphModel dx="6781" dy="1873" grid="1" gridSize="10" guides="1" tooltips="1" connect="1" arrows="1" fold="1" page="1" pageScale="1" pageWidth="827" pageHeight="1169" math="0" shadow="0">
      <root>
        <mxCell id="0" />
        <mxCell id="1" parent="0" />
        <mxCell id="R5uZomfJnm4MCFcjPCN--5" style="edgeStyle=orthogonalEdgeStyle;rounded=0;orthogonalLoop=1;jettySize=auto;html=1;entryX=0.5;entryY=0;entryDx=0;entryDy=0;" edge="1" parent="1" source="R5uZomfJnm4MCFcjPCN--1" target="R5uZomfJnm4MCFcjPCN--4">
          <mxGeometry relative="1" as="geometry" />
        </mxCell>
        <mxCell id="R5uZomfJnm4MCFcjPCN--1" value="Входная точка" style="swimlane;whiteSpace=wrap;html=1;fillColor=#d5e8d4;strokeColor=#82b366;" vertex="1" parent="1">
          <mxGeometry x="240" y="80" width="370" height="290" as="geometry" />
        </mxCell>
        <mxCell id="R5uZomfJnm4MCFcjPCN--2" value="&lt;span style=&quot;color: rgb(40, 37, 61); font-family: &amp;quot;Recursive Variable&amp;quot;, arial, sans-serif; font-size: 14px; text-wrap-mode: nowrap; background-color: rgb(225, 245, 254);&quot;&gt;Пользовательский запрос&lt;/span&gt;" style="rounded=0;whiteSpace=wrap;html=1;" vertex="1" parent="R5uZomfJnm4MCFcjPCN--1">
          <mxGeometry x="95" y="50" width="180" height="60" as="geometry" />
        </mxCell>
        <mxCell id="R5uZomfJnm4MCFcjPCN--3" value="&lt;span style=&quot;color: rgb(40, 37, 61); font-family: &amp;quot;Recursive Variable&amp;quot;, arial, sans-serif; font-size: 14px; text-wrap-mode: nowrap; background-color: rgb(225, 245, 254);&quot;&gt;Unified Gateway&lt;/span&gt;" style="rounded=0;whiteSpace=wrap;html=1;" vertex="1" parent="R5uZomfJnm4MCFcjPCN--1">
          <mxGeometry x="95" y="180" width="180" height="60" as="geometry" />
        </mxCell>
        <mxCell id="R5uZomfJnm4MCFcjPCN--132" style="edgeStyle=orthogonalEdgeStyle;rounded=0;orthogonalLoop=1;jettySize=auto;html=1;entryX=0.5;entryY=0;entryDx=0;entryDy=0;" edge="1" parent="1" source="R5uZomfJnm4MCFcjPCN--4" target="R5uZomfJnm4MCFcjPCN--126">
          <mxGeometry relative="1" as="geometry" />
        </mxCell>
        <mxCell id="R5uZomfJnm4MCFcjPCN--4" value="Безопастность и предобработка" style="swimlane;whiteSpace=wrap;html=1;fillColor=#a20025;strokeColor=#6F0000;startSize=23;fontColor=#ffffff;" vertex="1" parent="1">
          <mxGeometry x="-380" y="580" width="1610" height="1630" as="geometry" />
        </mxCell>
        <mxCell id="R5uZomfJnm4MCFcjPCN--7" value="&lt;span style=&quot;color: rgb(40, 37, 61); font-family: &amp;quot;Recursive Variable&amp;quot;, arial, sans-serif; font-size: 14px; text-wrap-mode: nowrap; background-color: rgb(252, 228, 236);&quot;&gt;Toxicity Detector&lt;/span&gt;" style="rounded=1;whiteSpace=wrap;html=1;" vertex="1" parent="R5uZomfJnm4MCFcjPCN--4">
          <mxGeometry x="677.5" y="100" width="120" height="60" as="geometry" />
        </mxCell>
        <mxCell id="R5uZomfJnm4MCFcjPCN--13" style="edgeStyle=orthogonalEdgeStyle;rounded=0;orthogonalLoop=1;jettySize=auto;html=1;entryX=0.5;entryY=0;entryDx=0;entryDy=0;" edge="1" parent="R5uZomfJnm4MCFcjPCN--4" source="R5uZomfJnm4MCFcjPCN--8" target="R5uZomfJnm4MCFcjPCN--15">
          <mxGeometry relative="1" as="geometry">
            <mxPoint x="715" y="320" as="targetPoint" />
          </mxGeometry>
        </mxCell>
        <mxCell id="R5uZomfJnm4MCFcjPCN--17" style="edgeStyle=orthogonalEdgeStyle;rounded=0;orthogonalLoop=1;jettySize=auto;html=1;entryX=0.5;entryY=0;entryDx=0;entryDy=0;" edge="1" parent="R5uZomfJnm4MCFcjPCN--4" source="R5uZomfJnm4MCFcjPCN--8" target="R5uZomfJnm4MCFcjPCN--16">
          <mxGeometry relative="1" as="geometry" />
        </mxCell>
        <mxCell id="R5uZomfJnm4MCFcjPCN--8" value="Токсичность?" style="strokeWidth=2;html=1;shape=mxgraph.flowchart.decision;whiteSpace=wrap;fillColor=#e3c800;fontColor=#000000;strokeColor=#B09500;" vertex="1" parent="R5uZomfJnm4MCFcjPCN--4">
          <mxGeometry x="485" y="200" width="100" height="100" as="geometry" />
        </mxCell>
        <mxCell id="R5uZomfJnm4MCFcjPCN--9" style="edgeStyle=orthogonalEdgeStyle;rounded=0;orthogonalLoop=1;jettySize=auto;html=1;entryX=0.5;entryY=0;entryDx=0;entryDy=0;entryPerimeter=0;" edge="1" parent="R5uZomfJnm4MCFcjPCN--4" source="R5uZomfJnm4MCFcjPCN--7" target="R5uZomfJnm4MCFcjPCN--8">
          <mxGeometry relative="1" as="geometry" />
        </mxCell>
        <mxCell id="R5uZomfJnm4MCFcjPCN--14" value="Высокая" style="text;html=1;whiteSpace=wrap;strokeColor=#B20000;fillColor=#e51400;align=center;verticalAlign=middle;rounded=0;fontColor=#ffffff;" vertex="1" parent="R5uZomfJnm4MCFcjPCN--4">
          <mxGeometry x="645" y="210" width="60" height="30" as="geometry" />
        </mxCell>
        <mxCell id="R5uZomfJnm4MCFcjPCN--20" style="edgeStyle=orthogonalEdgeStyle;rounded=0;orthogonalLoop=1;jettySize=auto;html=1;entryX=0.5;entryY=1;entryDx=0;entryDy=0;" edge="1" parent="R5uZomfJnm4MCFcjPCN--4" source="R5uZomfJnm4MCFcjPCN--15" target="R5uZomfJnm4MCFcjPCN--22">
          <mxGeometry relative="1" as="geometry">
            <mxPoint x="882.5" y="340" as="targetPoint" />
          </mxGeometry>
        </mxCell>
        <mxCell id="R5uZomfJnm4MCFcjPCN--26" style="edgeStyle=orthogonalEdgeStyle;rounded=0;orthogonalLoop=1;jettySize=auto;html=1;entryX=1;entryY=0.5;entryDx=0;entryDy=0;" edge="1" parent="R5uZomfJnm4MCFcjPCN--4" source="R5uZomfJnm4MCFcjPCN--15" target="R5uZomfJnm4MCFcjPCN--16">
          <mxGeometry relative="1" as="geometry" />
        </mxCell>
        <mxCell id="R5uZomfJnm4MCFcjPCN--28" style="edgeStyle=orthogonalEdgeStyle;rounded=0;orthogonalLoop=1;jettySize=auto;html=1;entryX=0.5;entryY=0;entryDx=0;entryDy=0;" edge="1" parent="R5uZomfJnm4MCFcjPCN--4" source="R5uZomfJnm4MCFcjPCN--15" target="R5uZomfJnm4MCFcjPCN--27">
          <mxGeometry relative="1" as="geometry" />
        </mxCell>
        <mxCell id="R5uZomfJnm4MCFcjPCN--15" value="&lt;span style=&quot;color: rgb(40, 37, 61); font-family: &amp;quot;Recursive Variable&amp;quot;, arial, sans-serif; font-size: 14px; text-wrap-mode: nowrap; background-color: rgb(252, 228, 236);&quot;&gt;De-escalation Agent&lt;/span&gt;" style="rounded=0;whiteSpace=wrap;html=1;" vertex="1" parent="R5uZomfJnm4MCFcjPCN--4">
          <mxGeometry x="655" y="310" width="140" height="60" as="geometry" />
        </mxCell>
        <mxCell id="R5uZomfJnm4MCFcjPCN--31" style="edgeStyle=orthogonalEdgeStyle;rounded=0;orthogonalLoop=1;jettySize=auto;html=1;entryX=0.5;entryY=0;entryDx=0;entryDy=0;" edge="1" parent="R5uZomfJnm4MCFcjPCN--4" source="R5uZomfJnm4MCFcjPCN--16" target="R5uZomfJnm4MCFcjPCN--29">
          <mxGeometry relative="1" as="geometry" />
        </mxCell>
        <mxCell id="R5uZomfJnm4MCFcjPCN--39" style="edgeStyle=orthogonalEdgeStyle;rounded=0;orthogonalLoop=1;jettySize=auto;html=1;entryX=0.5;entryY=0;entryDx=0;entryDy=0;" edge="1" parent="R5uZomfJnm4MCFcjPCN--4" source="R5uZomfJnm4MCFcjPCN--16" target="R5uZomfJnm4MCFcjPCN--38">
          <mxGeometry relative="1" as="geometry" />
        </mxCell>
        <mxCell id="R5uZomfJnm4MCFcjPCN--16" value="&lt;span style=&quot;color: rgb(40, 37, 61); font-family: &amp;quot;Recursive Variable&amp;quot;, arial, sans-serif; font-size: 14px; text-wrap-mode: nowrap; background-color: rgb(225, 245, 254);&quot;&gt;Intent Classifier&lt;/span&gt;" style="rounded=0;whiteSpace=wrap;html=1;" vertex="1" parent="R5uZomfJnm4MCFcjPCN--4">
          <mxGeometry x="475" y="400" width="120" height="60" as="geometry" />
        </mxCell>
        <mxCell id="R5uZomfJnm4MCFcjPCN--18" value="Низкая" style="text;html=1;whiteSpace=wrap;strokeColor=#2D7600;fillColor=#60a917;align=center;verticalAlign=middle;rounded=0;fontColor=#ffffff;" vertex="1" parent="R5uZomfJnm4MCFcjPCN--4">
          <mxGeometry x="445" y="310" width="60" height="30" as="geometry" />
        </mxCell>
        <mxCell id="R5uZomfJnm4MCFcjPCN--23" style="edgeStyle=orthogonalEdgeStyle;rounded=0;orthogonalLoop=1;jettySize=auto;html=1;entryX=1;entryY=0.5;entryDx=0;entryDy=0;" edge="1" parent="R5uZomfJnm4MCFcjPCN--4" source="R5uZomfJnm4MCFcjPCN--22" target="R5uZomfJnm4MCFcjPCN--7">
          <mxGeometry relative="1" as="geometry">
            <mxPoint x="875" y="140" as="targetPoint" />
          </mxGeometry>
        </mxCell>
        <mxCell id="R5uZomfJnm4MCFcjPCN--22" value="&lt;span style=&quot;color: rgb(40, 37, 61); font-family: &amp;quot;Recursive Variable&amp;quot;, arial, sans-serif; font-size: 14px; text-wrap-mode: nowrap; background-color: rgb(252, 228, 236);&quot;&gt;Response Safety Check&lt;/span&gt;" style="rounded=0;whiteSpace=wrap;html=1;" vertex="1" parent="R5uZomfJnm4MCFcjPCN--4">
          <mxGeometry x="875" y="100" width="165" height="60" as="geometry" />
        </mxCell>
        <mxCell id="R5uZomfJnm4MCFcjPCN--27" value="&lt;span style=&quot;color: rgb(40, 37, 61); font-family: &amp;quot;Recursive Variable&amp;quot;, arial, sans-serif; font-size: 14px; text-wrap-mode: nowrap; background-color: rgb(255, 0, 128);&quot;&gt;Escalation Manager&lt;/span&gt;" style="rounded=0;whiteSpace=wrap;html=1;" vertex="1" parent="R5uZomfJnm4MCFcjPCN--4">
          <mxGeometry x="830" y="425" width="140" height="60" as="geometry" />
        </mxCell>
        <mxCell id="R5uZomfJnm4MCFcjPCN--53" style="edgeStyle=orthogonalEdgeStyle;rounded=0;orthogonalLoop=1;jettySize=auto;html=1;entryX=0.5;entryY=0;entryDx=0;entryDy=0;" edge="1" parent="R5uZomfJnm4MCFcjPCN--4" source="R5uZomfJnm4MCFcjPCN--29" target="R5uZomfJnm4MCFcjPCN--52">
          <mxGeometry relative="1" as="geometry" />
        </mxCell>
        <mxCell id="R5uZomfJnm4MCFcjPCN--29" value="&lt;font face=&quot;Recursive Variable, arial, sans-serif&quot; color=&quot;#28253d&quot;&gt;&lt;span style=&quot;font-size: 14px; font-weight: 400; text-wrap-mode: nowrap; background-color: rgb(225, 245, 254);&quot;&gt;Система приоритетов&lt;/span&gt;&lt;/font&gt;" style="swimlane;whiteSpace=wrap;html=1;fillColor=#1ba1e2;fontColor=#ffffff;strokeColor=#006EAF;" vertex="1" parent="R5uZomfJnm4MCFcjPCN--4">
          <mxGeometry x="60" y="650" width="410" height="420" as="geometry" />
        </mxCell>
        <mxCell id="R5uZomfJnm4MCFcjPCN--34" style="edgeStyle=orthogonalEdgeStyle;rounded=0;orthogonalLoop=1;jettySize=auto;html=1;entryX=0.5;entryY=0;entryDx=0;entryDy=0;" edge="1" parent="R5uZomfJnm4MCFcjPCN--29" source="R5uZomfJnm4MCFcjPCN--32" target="R5uZomfJnm4MCFcjPCN--33">
          <mxGeometry relative="1" as="geometry" />
        </mxCell>
        <mxCell id="R5uZomfJnm4MCFcjPCN--32" value="&lt;span style=&quot;color: rgb(40, 37, 61); font-family: &amp;quot;Recursive Variable&amp;quot;, arial, sans-serif; font-size: 14px; text-wrap-mode: nowrap; background-color: rgb(255, 255, 255);&quot;&gt;Priority Assigner - цена вопроса + роль отправителя&lt;/span&gt;" style="rounded=0;whiteSpace=wrap;html=1;" vertex="1" parent="R5uZomfJnm4MCFcjPCN--29">
          <mxGeometry x="30" y="40" width="342.5" height="70" as="geometry" />
        </mxCell>
        <mxCell id="R5uZomfJnm4MCFcjPCN--37" style="edgeStyle=orthogonalEdgeStyle;rounded=0;orthogonalLoop=1;jettySize=auto;html=1;entryX=0.5;entryY=0;entryDx=0;entryDy=0;" edge="1" parent="R5uZomfJnm4MCFcjPCN--29" source="R5uZomfJnm4MCFcjPCN--33" target="R5uZomfJnm4MCFcjPCN--35">
          <mxGeometry relative="1" as="geometry" />
        </mxCell>
        <mxCell id="R5uZomfJnm4MCFcjPCN--33" value="&lt;span style=&quot;color: rgb(40, 37, 61); font-family: &amp;quot;Recursive Variable&amp;quot;, arial, sans-serif; font-size: 14px; text-wrap-mode: nowrap; background-color: rgb(255, 255, 255);&quot;&gt;Priority Queue / SLA Buckets&lt;/span&gt;" style="rounded=0;whiteSpace=wrap;html=1;" vertex="1" parent="R5uZomfJnm4MCFcjPCN--29">
          <mxGeometry x="88.75" y="160" width="225" height="60" as="geometry" />
        </mxCell>
        <mxCell id="R5uZomfJnm4MCFcjPCN--35" value="&lt;span style=&quot;color: rgb(40, 37, 61); font-family: &amp;quot;Recursive Variable&amp;quot;, arial, sans-serif; font-size: 14px; text-wrap-mode: nowrap; background-color: rgb(255, 255, 255);&quot;&gt;Fast-track Escalation - High Priority&lt;/span&gt;" style="rounded=0;whiteSpace=wrap;html=1;" vertex="1" parent="R5uZomfJnm4MCFcjPCN--29">
          <mxGeometry x="85.63" y="310" width="231.25" height="60" as="geometry" />
        </mxCell>
        <mxCell id="R5uZomfJnm4MCFcjPCN--36" value="Высокая" style="text;html=1;whiteSpace=wrap;strokeColor=#B20000;fillColor=#e51400;align=center;verticalAlign=middle;rounded=0;fontColor=#ffffff;" vertex="1" parent="R5uZomfJnm4MCFcjPCN--29">
          <mxGeometry x="105" y="250" width="60" height="30" as="geometry" />
        </mxCell>
        <mxCell id="R5uZomfJnm4MCFcjPCN--47" style="edgeStyle=orthogonalEdgeStyle;rounded=0;orthogonalLoop=1;jettySize=auto;html=1;entryX=0.5;entryY=0;entryDx=0;entryDy=0;" edge="1" parent="R5uZomfJnm4MCFcjPCN--4" source="R5uZomfJnm4MCFcjPCN--38" target="R5uZomfJnm4MCFcjPCN--46">
          <mxGeometry relative="1" as="geometry" />
        </mxCell>
        <mxCell id="R5uZomfJnm4MCFcjPCN--38" value="&lt;span style=&quot;color: rgb(40, 37, 61); font-family: &amp;quot;Recursive Variable&amp;quot;, arial, sans-serif; font-size: 14px; font-weight: 400; text-wrap-mode: nowrap; background-color: rgb(225, 245, 254);&quot;&gt;Система обнаружения инцидентов&amp;nbsp;&lt;/span&gt;" style="swimlane;whiteSpace=wrap;html=1;startSize=23;fillColor=#1ba1e2;strokeColor=#006EAF;fontColor=#ffffff;" vertex="1" parent="R5uZomfJnm4MCFcjPCN--4">
          <mxGeometry x="540" y="645" width="530" height="435" as="geometry" />
        </mxCell>
        <mxCell id="R5uZomfJnm4MCFcjPCN--44" style="edgeStyle=orthogonalEdgeStyle;rounded=0;orthogonalLoop=1;jettySize=auto;html=1;entryX=0.5;entryY=0;entryDx=0;entryDy=0;" edge="1" parent="R5uZomfJnm4MCFcjPCN--38" source="R5uZomfJnm4MCFcjPCN--40" target="R5uZomfJnm4MCFcjPCN--42">
          <mxGeometry relative="1" as="geometry" />
        </mxCell>
        <mxCell id="R5uZomfJnm4MCFcjPCN--40" value="&lt;span style=&quot;color: rgb(40, 37, 61); font-family: &amp;quot;Recursive Variable&amp;quot;, arial, sans-serif; font-size: 14px; text-wrap-mode: nowrap; background-color: rgb(255, 255, 255);&quot;&gt;Failure Detector / Монитор сбоев&lt;/span&gt;" style="rounded=0;whiteSpace=wrap;html=1;" vertex="1" parent="R5uZomfJnm4MCFcjPCN--38">
          <mxGeometry x="140" y="65" width="250" height="60" as="geometry" />
        </mxCell>
        <mxCell id="R5uZomfJnm4MCFcjPCN--45" style="edgeStyle=orthogonalEdgeStyle;rounded=0;orthogonalLoop=1;jettySize=auto;html=1;entryX=0.5;entryY=0;entryDx=0;entryDy=0;" edge="1" parent="R5uZomfJnm4MCFcjPCN--38" source="R5uZomfJnm4MCFcjPCN--42" target="R5uZomfJnm4MCFcjPCN--43">
          <mxGeometry relative="1" as="geometry" />
        </mxCell>
        <mxCell id="R5uZomfJnm4MCFcjPCN--42" value="&lt;span style=&quot;color: rgb(40, 37, 61); font-family: &amp;quot;Recursive Variable&amp;quot;, arial, sans-serif; font-size: 14px; text-wrap-mode: nowrap; background-color: rgb(255, 255, 255);&quot;&gt;Mass Similarity Detector - кластеризация однотипных обращений&lt;/span&gt;" style="rounded=0;whiteSpace=wrap;html=1;" vertex="1" parent="R5uZomfJnm4MCFcjPCN--38">
          <mxGeometry x="50" y="187.5" width="430" height="60" as="geometry" />
        </mxCell>
        <mxCell id="R5uZomfJnm4MCFcjPCN--43" value="&lt;span style=&quot;color: rgb(40, 37, 61); font-family: &amp;quot;Recursive Variable&amp;quot;, arial, sans-serif; font-size: 14px; text-wrap-mode: nowrap; background-color: rgb(255, 255, 255);&quot;&gt;Mass Incident Manager - авто-уведомления, статус страницы инцидента&lt;/span&gt;" style="rounded=0;whiteSpace=wrap;html=1;" vertex="1" parent="R5uZomfJnm4MCFcjPCN--38">
          <mxGeometry x="20" y="305" width="490" height="60" as="geometry" />
        </mxCell>
        <mxCell id="R5uZomfJnm4MCFcjPCN--49" style="edgeStyle=orthogonalEdgeStyle;rounded=0;orthogonalLoop=1;jettySize=auto;html=1;entryX=0.5;entryY=0;entryDx=0;entryDy=0;" edge="1" parent="R5uZomfJnm4MCFcjPCN--4" source="R5uZomfJnm4MCFcjPCN--46" target="R5uZomfJnm4MCFcjPCN--48">
          <mxGeometry relative="1" as="geometry" />
        </mxCell>
        <mxCell id="R5uZomfJnm4MCFcjPCN--46" value="&lt;span style=&quot;color: rgb(40, 37, 61); font-family: &amp;quot;Recursive Variable&amp;quot;, arial, sans-serif; font-size: 14px; text-wrap-mode: nowrap; background-color: rgb(255, 255, 255);&quot;&gt;Broadcast / Status Page / Self-help Push&lt;/span&gt;" style="rounded=0;whiteSpace=wrap;html=1;" vertex="1" parent="R5uZomfJnm4MCFcjPCN--4">
          <mxGeometry x="666.25" y="1144" width="277.5" height="60" as="geometry" />
        </mxCell>
        <mxCell id="R5uZomfJnm4MCFcjPCN--51" style="edgeStyle=orthogonalEdgeStyle;rounded=0;orthogonalLoop=1;jettySize=auto;html=1;entryX=0.5;entryY=0;entryDx=0;entryDy=0;" edge="1" parent="R5uZomfJnm4MCFcjPCN--4" source="R5uZomfJnm4MCFcjPCN--48" target="R5uZomfJnm4MCFcjPCN--50">
          <mxGeometry relative="1" as="geometry" />
        </mxCell>
        <mxCell id="R5uZomfJnm4MCFcjPCN--48" value="&lt;span style=&quot;color: rgb(40, 37, 61); font-family: &amp;quot;Recursive Variable&amp;quot;, arial, sans-serif; font-size: 14px; text-wrap-mode: nowrap; background-color: rgb(252, 228, 236);&quot;&gt;Response Safety Check&lt;/span&gt;" style="rounded=0;whiteSpace=wrap;html=1;" vertex="1" parent="R5uZomfJnm4MCFcjPCN--4">
          <mxGeometry x="722.5" y="1280" width="165" height="60" as="geometry" />
        </mxCell>
        <mxCell id="R5uZomfJnm4MCFcjPCN--50" value="Output Gateway" style="rounded=0;whiteSpace=wrap;html=1;fillColor=#1ba1e2;fontColor=#ffffff;strokeColor=#006EAF;" vertex="1" parent="R5uZomfJnm4MCFcjPCN--4">
          <mxGeometry x="745" y="1400" width="120" height="60" as="geometry" />
        </mxCell>
        <mxCell id="R5uZomfJnm4MCFcjPCN--52" value="Обработка обращения" style="ellipse;whiteSpace=wrap;html=1;aspect=fixed;fillColor=#60a917;fontColor=#ffffff;strokeColor=#2D7600;" vertex="1" parent="R5uZomfJnm4MCFcjPCN--4">
          <mxGeometry x="225" y="1150" width="80" height="80" as="geometry" />
        </mxCell>
        <mxCell id="R5uZomfJnm4MCFcjPCN--54" value="Обработка обращения" style="swimlane;whiteSpace=wrap;html=1;fillColor=#60a917;fontColor=#ffffff;strokeColor=#2D7600;" vertex="1" parent="1">
          <mxGeometry x="-1940" y="970" width="1290" height="1730" as="geometry" />
        </mxCell>
        <mxCell id="R5uZomfJnm4MCFcjPCN--57" style="edgeStyle=orthogonalEdgeStyle;rounded=0;orthogonalLoop=1;jettySize=auto;html=1;entryX=0.5;entryY=0;entryDx=0;entryDy=0;" edge="1" parent="R5uZomfJnm4MCFcjPCN--54" source="R5uZomfJnm4MCFcjPCN--55" target="R5uZomfJnm4MCFcjPCN--56">
          <mxGeometry relative="1" as="geometry" />
        </mxCell>
        <mxCell id="R5uZomfJnm4MCFcjPCN--60" style="edgeStyle=orthogonalEdgeStyle;rounded=0;orthogonalLoop=1;jettySize=auto;html=1;entryX=0.5;entryY=0;entryDx=0;entryDy=0;" edge="1" parent="R5uZomfJnm4MCFcjPCN--54" source="R5uZomfJnm4MCFcjPCN--55" target="R5uZomfJnm4MCFcjPCN--59">
          <mxGeometry relative="1" as="geometry" />
        </mxCell>
        <mxCell id="R5uZomfJnm4MCFcjPCN--55" value="Уверенность &amp;gt; 0.7" style="rhombus;whiteSpace=wrap;html=1;fillColor=#e3c800;fontColor=#000000;strokeColor=#B09500;" vertex="1" parent="R5uZomfJnm4MCFcjPCN--54">
          <mxGeometry x="230" y="59" width="150" height="140" as="geometry" />
        </mxCell>
        <mxCell id="R5uZomfJnm4MCFcjPCN--81" style="edgeStyle=orthogonalEdgeStyle;rounded=0;orthogonalLoop=1;jettySize=auto;html=1;entryX=0;entryY=0.5;entryDx=0;entryDy=0;" edge="1" parent="R5uZomfJnm4MCFcjPCN--54" source="R5uZomfJnm4MCFcjPCN--56" target="R5uZomfJnm4MCFcjPCN--80">
          <mxGeometry relative="1" as="geometry" />
        </mxCell>
        <mxCell id="R5uZomfJnm4MCFcjPCN--56" value="&lt;span style=&quot;color: rgb(40, 37, 61); font-family: &amp;quot;Recursive Variable&amp;quot;, arial, sans-serif; font-size: 14px; text-wrap-mode: nowrap; background-color: rgb(225, 245, 254);&quot;&gt;Knowledge Retrieval Agent&lt;/span&gt;" style="rounded=0;whiteSpace=wrap;html=1;" vertex="1" parent="R5uZomfJnm4MCFcjPCN--54">
          <mxGeometry x="400" y="260" width="200" height="60" as="geometry" />
        </mxCell>
        <mxCell id="R5uZomfJnm4MCFcjPCN--58" value="Да" style="text;html=1;whiteSpace=wrap;strokeColor=#005700;fillColor=#008a00;align=center;verticalAlign=middle;rounded=0;fontColor=#ffffff;" vertex="1" parent="R5uZomfJnm4MCFcjPCN--54">
          <mxGeometry x="520" y="169" width="60" height="30" as="geometry" />
        </mxCell>
        <mxCell id="R5uZomfJnm4MCFcjPCN--72" style="edgeStyle=orthogonalEdgeStyle;rounded=0;orthogonalLoop=1;jettySize=auto;html=1;entryX=0.5;entryY=0;entryDx=0;entryDy=0;" edge="1" parent="R5uZomfJnm4MCFcjPCN--54" source="R5uZomfJnm4MCFcjPCN--59" target="R5uZomfJnm4MCFcjPCN--71">
          <mxGeometry relative="1" as="geometry" />
        </mxCell>
        <mxCell id="R5uZomfJnm4MCFcjPCN--59" value="&lt;span style=&quot;color: rgb(40, 37, 61); font-family: &amp;quot;Recursive Variable&amp;quot;, arial, sans-serif; font-size: 14px; text-wrap-mode: nowrap; background-color: rgb(255, 255, 255);&quot;&gt;Information Gap Analyzer&lt;/span&gt;" style="rounded=0;whiteSpace=wrap;html=1;" vertex="1" parent="R5uZomfJnm4MCFcjPCN--54">
          <mxGeometry x="50" y="270" width="170" height="60" as="geometry" />
        </mxCell>
        <mxCell id="R5uZomfJnm4MCFcjPCN--61" value="Нет" style="text;html=1;whiteSpace=wrap;strokeColor=#B20000;fillColor=#e51400;align=center;verticalAlign=middle;rounded=0;fontColor=#ffffff;" vertex="1" parent="R5uZomfJnm4MCFcjPCN--54">
          <mxGeometry x="30" y="160" width="60" height="30" as="geometry" />
        </mxCell>
        <mxCell id="R5uZomfJnm4MCFcjPCN--67" style="edgeStyle=orthogonalEdgeStyle;rounded=0;orthogonalLoop=1;jettySize=auto;html=1;entryX=0.5;entryY=1;entryDx=0;entryDy=0;" edge="1" parent="R5uZomfJnm4MCFcjPCN--54" source="R5uZomfJnm4MCFcjPCN--62" target="R5uZomfJnm4MCFcjPCN--56">
          <mxGeometry relative="1" as="geometry" />
        </mxCell>
        <mxCell id="R5uZomfJnm4MCFcjPCN--62" value="&lt;span style=&quot;color: rgb(40, 37, 61); font-family: &amp;quot;Recursive Variable&amp;quot;, arial, sans-serif; font-size: 14px; text-wrap-mode: nowrap; background-color: rgb(232, 245, 232);&quot;&gt;Knowledge Base&lt;/span&gt;" style="strokeWidth=2;html=1;shape=mxgraph.flowchart.database;whiteSpace=wrap;" vertex="1" parent="R5uZomfJnm4MCFcjPCN--54">
          <mxGeometry x="440" y="370" width="120" height="110" as="geometry" />
        </mxCell>
        <mxCell id="R5uZomfJnm4MCFcjPCN--74" style="edgeStyle=orthogonalEdgeStyle;rounded=0;orthogonalLoop=1;jettySize=auto;html=1;entryX=0.5;entryY=0;entryDx=0;entryDy=0;" edge="1" parent="R5uZomfJnm4MCFcjPCN--54" source="R5uZomfJnm4MCFcjPCN--71" target="R5uZomfJnm4MCFcjPCN--73">
          <mxGeometry relative="1" as="geometry" />
        </mxCell>
        <mxCell id="R5uZomfJnm4MCFcjPCN--71" value="&lt;span style=&quot;color: rgb(40, 37, 61); font-family: &amp;quot;Recursive Variable&amp;quot;, arial, sans-serif; font-size: 14px; text-wrap-mode: nowrap; background-color: rgb(255, 255, 255);&quot;&gt;Smart Query Generator&lt;/span&gt;" style="rounded=0;whiteSpace=wrap;html=1;" vertex="1" parent="R5uZomfJnm4MCFcjPCN--54">
          <mxGeometry x="50" y="405" width="170" height="60" as="geometry" />
        </mxCell>
        <mxCell id="R5uZomfJnm4MCFcjPCN--77" style="edgeStyle=orthogonalEdgeStyle;rounded=0;orthogonalLoop=1;jettySize=auto;html=1;entryX=0.5;entryY=0;entryDx=0;entryDy=0;" edge="1" parent="R5uZomfJnm4MCFcjPCN--54" source="R5uZomfJnm4MCFcjPCN--73" target="R5uZomfJnm4MCFcjPCN--76">
          <mxGeometry relative="1" as="geometry" />
        </mxCell>
        <mxCell id="R5uZomfJnm4MCFcjPCN--73" value="&lt;span style=&quot;color: rgb(40, 37, 61); font-family: &amp;quot;Recursive Variable&amp;quot;, arial, sans-serif; font-size: 14px; text-wrap-mode: nowrap; background-color: rgb(252, 228, 236);&quot;&gt;Response Safety Check&lt;/span&gt;" style="rounded=0;whiteSpace=wrap;html=1;" vertex="1" parent="R5uZomfJnm4MCFcjPCN--54">
          <mxGeometry x="52.5" y="550" width="165" height="60" as="geometry" />
        </mxCell>
        <mxCell id="R5uZomfJnm4MCFcjPCN--79" style="edgeStyle=orthogonalEdgeStyle;rounded=0;orthogonalLoop=1;jettySize=auto;html=1;entryX=0.5;entryY=0;entryDx=0;entryDy=0;" edge="1" parent="R5uZomfJnm4MCFcjPCN--54" source="R5uZomfJnm4MCFcjPCN--76" target="R5uZomfJnm4MCFcjPCN--78">
          <mxGeometry relative="1" as="geometry" />
        </mxCell>
        <mxCell id="R5uZomfJnm4MCFcjPCN--76" value="&lt;span style=&quot;color: rgb(40, 37, 61); font-family: &amp;quot;Recursive Variable&amp;quot;, arial, sans-serif; font-size: 14px; text-wrap-mode: nowrap; background-color: rgb(255, 255, 255);&quot;&gt;Пользователь уточняющие вопросы&lt;/span&gt;" style="rounded=0;whiteSpace=wrap;html=1;" vertex="1" parent="R5uZomfJnm4MCFcjPCN--54">
          <mxGeometry x="20" y="680" width="230" height="60" as="geometry" />
        </mxCell>
        <mxCell id="R5uZomfJnm4MCFcjPCN--123" style="edgeStyle=orthogonalEdgeStyle;rounded=0;orthogonalLoop=1;jettySize=auto;html=1;entryX=0;entryY=0.5;entryDx=0;entryDy=0;" edge="1" parent="R5uZomfJnm4MCFcjPCN--54" source="R5uZomfJnm4MCFcjPCN--78" target="R5uZomfJnm4MCFcjPCN--122">
          <mxGeometry relative="1" as="geometry" />
        </mxCell>
        <mxCell id="R5uZomfJnm4MCFcjPCN--78" value="&lt;span style=&quot;color: rgb(40, 37, 61); font-family: &amp;quot;Recursive Variable&amp;quot;, arial, sans-serif; font-size: 14px; text-wrap-mode: nowrap; background-color: rgb(225, 245, 254);&quot;&gt;Intent Classifier&lt;/span&gt;" style="ellipse;whiteSpace=wrap;html=1;aspect=fixed;fillColor=#b1ddf0;strokeColor=#10739e;" vertex="1" parent="R5uZomfJnm4MCFcjPCN--54">
          <mxGeometry x="77.5" y="800" width="115" height="115" as="geometry" />
        </mxCell>
        <mxCell id="R5uZomfJnm4MCFcjPCN--84" style="edgeStyle=orthogonalEdgeStyle;rounded=0;orthogonalLoop=1;jettySize=auto;html=1;entryX=0.5;entryY=0;entryDx=0;entryDy=0;" edge="1" parent="R5uZomfJnm4MCFcjPCN--54" source="R5uZomfJnm4MCFcjPCN--80" target="R5uZomfJnm4MCFcjPCN--83">
          <mxGeometry relative="1" as="geometry" />
        </mxCell>
        <mxCell id="R5uZomfJnm4MCFcjPCN--80" value="&lt;span style=&quot;color: rgb(40, 37, 61); font-family: &amp;quot;Recursive Variable&amp;quot;, arial, sans-serif; font-size: 14px; text-wrap-mode: nowrap; background-color: rgb(225, 245, 254);&quot;&gt;Action Planner&lt;/span&gt;" style="rounded=0;whiteSpace=wrap;html=1;" vertex="1" parent="R5uZomfJnm4MCFcjPCN--54">
          <mxGeometry x="760" y="260" width="120" height="60" as="geometry" />
        </mxCell>
        <mxCell id="R5uZomfJnm4MCFcjPCN--87" style="edgeStyle=orthogonalEdgeStyle;rounded=0;orthogonalLoop=1;jettySize=auto;html=1;entryX=0.5;entryY=0;entryDx=0;entryDy=0;" edge="1" parent="R5uZomfJnm4MCFcjPCN--54" source="R5uZomfJnm4MCFcjPCN--82" target="R5uZomfJnm4MCFcjPCN--86">
          <mxGeometry relative="1" as="geometry" />
        </mxCell>
        <mxCell id="R5uZomfJnm4MCFcjPCN--91" style="edgeStyle=orthogonalEdgeStyle;rounded=0;orthogonalLoop=1;jettySize=auto;html=1;entryX=0.5;entryY=0;entryDx=0;entryDy=0;" edge="1" parent="R5uZomfJnm4MCFcjPCN--54" source="R5uZomfJnm4MCFcjPCN--82" target="R5uZomfJnm4MCFcjPCN--90">
          <mxGeometry relative="1" as="geometry" />
        </mxCell>
        <mxCell id="R5uZomfJnm4MCFcjPCN--82" value="Безопасно?" style="rhombus;whiteSpace=wrap;html=1;fillColor=#e3c800;fontColor=#000000;strokeColor=#B09500;" vertex="1" parent="R5uZomfJnm4MCFcjPCN--54">
          <mxGeometry x="745" y="550" width="150" height="140" as="geometry" />
        </mxCell>
        <mxCell id="R5uZomfJnm4MCFcjPCN--85" style="edgeStyle=orthogonalEdgeStyle;rounded=0;orthogonalLoop=1;jettySize=auto;html=1;entryX=0.5;entryY=0;entryDx=0;entryDy=0;" edge="1" parent="R5uZomfJnm4MCFcjPCN--54" source="R5uZomfJnm4MCFcjPCN--83" target="R5uZomfJnm4MCFcjPCN--82">
          <mxGeometry relative="1" as="geometry" />
        </mxCell>
        <mxCell id="R5uZomfJnm4MCFcjPCN--83" value="&lt;span style=&quot;color: rgb(40, 37, 61); font-family: &amp;quot;Recursive Variable&amp;quot;, arial, sans-serif; font-size: 14px; text-wrap-mode: nowrap; background-color: rgb(252, 228, 236);&quot;&gt;Safety Validator&lt;/span&gt;" style="rounded=0;whiteSpace=wrap;html=1;" vertex="1" parent="R5uZomfJnm4MCFcjPCN--54">
          <mxGeometry x="760" y="405" width="120" height="60" as="geometry" />
        </mxCell>
        <mxCell id="R5uZomfJnm4MCFcjPCN--95" style="edgeStyle=orthogonalEdgeStyle;rounded=0;orthogonalLoop=1;jettySize=auto;html=1;entryX=0.5;entryY=0;entryDx=0;entryDy=0;" edge="1" parent="R5uZomfJnm4MCFcjPCN--54" source="R5uZomfJnm4MCFcjPCN--86" target="R5uZomfJnm4MCFcjPCN--94">
          <mxGeometry relative="1" as="geometry" />
        </mxCell>
        <mxCell id="R5uZomfJnm4MCFcjPCN--86" value="&lt;span style=&quot;color: rgb(40, 37, 61); font-family: &amp;quot;Recursive Variable&amp;quot;, arial, sans-serif; font-size: 14px; text-wrap-mode: nowrap; background-color: rgb(225, 245, 254);&quot;&gt;Action Executor&lt;/span&gt;" style="rounded=0;whiteSpace=wrap;html=1;" vertex="1" parent="R5uZomfJnm4MCFcjPCN--54">
          <mxGeometry x="560" y="730" width="120" height="60" as="geometry" />
        </mxCell>
        <mxCell id="R5uZomfJnm4MCFcjPCN--88" value="Да" style="text;html=1;whiteSpace=wrap;strokeColor=#005700;fillColor=#008a00;align=center;verticalAlign=middle;rounded=0;fontColor=#ffffff;" vertex="1" parent="R5uZomfJnm4MCFcjPCN--54">
          <mxGeometry x="530" y="600" width="60" height="30" as="geometry" />
        </mxCell>
        <mxCell id="R5uZomfJnm4MCFcjPCN--89" value="Нет" style="text;html=1;whiteSpace=wrap;strokeColor=#B20000;fillColor=#e51400;align=center;verticalAlign=middle;rounded=0;fontColor=#ffffff;" vertex="1" parent="R5uZomfJnm4MCFcjPCN--54">
          <mxGeometry x="1050" y="580" width="60" height="30" as="geometry" />
        </mxCell>
        <mxCell id="R5uZomfJnm4MCFcjPCN--92" style="edgeStyle=orthogonalEdgeStyle;rounded=0;orthogonalLoop=1;jettySize=auto;html=1;entryX=1;entryY=0.5;entryDx=0;entryDy=0;" edge="1" parent="R5uZomfJnm4MCFcjPCN--54" source="R5uZomfJnm4MCFcjPCN--90" target="R5uZomfJnm4MCFcjPCN--86">
          <mxGeometry relative="1" as="geometry" />
        </mxCell>
        <mxCell id="R5uZomfJnm4MCFcjPCN--90" value="&lt;span style=&quot;color: rgb(40, 37, 61); font-family: &amp;quot;Recursive Variable&amp;quot;, arial, sans-serif; font-size: 14px; text-wrap-mode: nowrap; background-color: rgb(255, 255, 255);&quot;&gt;Action Corrector&lt;/span&gt;" style="rounded=0;whiteSpace=wrap;html=1;" vertex="1" parent="R5uZomfJnm4MCFcjPCN--54">
          <mxGeometry x="950" y="730" width="120" height="60" as="geometry" />
        </mxCell>
        <mxCell id="R5uZomfJnm4MCFcjPCN--105" style="edgeStyle=orthogonalEdgeStyle;rounded=0;orthogonalLoop=1;jettySize=auto;html=1;entryX=0.5;entryY=0;entryDx=0;entryDy=0;" edge="1" parent="R5uZomfJnm4MCFcjPCN--54" source="R5uZomfJnm4MCFcjPCN--94" target="R5uZomfJnm4MCFcjPCN--104">
          <mxGeometry relative="1" as="geometry" />
        </mxCell>
        <mxCell id="R5uZomfJnm4MCFcjPCN--94" value="&lt;font face=&quot;Recursive Variable, arial, sans-serif&quot; color=&quot;#28253d&quot;&gt;&lt;span style=&quot;font-size: 14px; text-wrap-mode: nowrap; background-color: rgb(255, 255, 255);&quot;&gt;MCP&lt;/span&gt;&lt;/font&gt;" style="ellipse;whiteSpace=wrap;html=1;aspect=fixed;fillColor=#6a00ff;strokeColor=#3700CC;fontColor=#ffffff;" vertex="1" parent="R5uZomfJnm4MCFcjPCN--54">
          <mxGeometry x="562.5" y="900" width="115" height="115" as="geometry" />
        </mxCell>
        <mxCell id="R5uZomfJnm4MCFcjPCN--104" value="Генерация ответа" style="swimlane;whiteSpace=wrap;html=1;fillColor=#b1ddf0;strokeColor=#10739e;" vertex="1" parent="R5uZomfJnm4MCFcjPCN--54">
          <mxGeometry x="550" y="1070" width="610" height="595" as="geometry" />
        </mxCell>
        <mxCell id="R5uZomfJnm4MCFcjPCN--108" style="edgeStyle=orthogonalEdgeStyle;rounded=0;orthogonalLoop=1;jettySize=auto;html=1;entryX=0.5;entryY=0;entryDx=0;entryDy=0;" edge="1" parent="R5uZomfJnm4MCFcjPCN--104" source="R5uZomfJnm4MCFcjPCN--106" target="R5uZomfJnm4MCFcjPCN--107">
          <mxGeometry relative="1" as="geometry" />
        </mxCell>
        <mxCell id="R5uZomfJnm4MCFcjPCN--106" value="&lt;span style=&quot;color: rgb(40, 37, 61); font-family: &amp;quot;Recursive Variable&amp;quot;, arial, sans-serif; font-size: 14px; text-wrap-mode: nowrap; background-color: rgb(225, 245, 254);&quot;&gt;Response Generator&lt;/span&gt;" style="rounded=0;whiteSpace=wrap;html=1;" vertex="1" parent="R5uZomfJnm4MCFcjPCN--104">
          <mxGeometry x="213.75" y="75" width="155" height="65" as="geometry" />
        </mxCell>
        <mxCell id="R5uZomfJnm4MCFcjPCN--111" style="edgeStyle=orthogonalEdgeStyle;rounded=0;orthogonalLoop=1;jettySize=auto;html=1;entryX=0.5;entryY=0;entryDx=0;entryDy=0;" edge="1" parent="R5uZomfJnm4MCFcjPCN--104" source="R5uZomfJnm4MCFcjPCN--107" target="R5uZomfJnm4MCFcjPCN--110">
          <mxGeometry relative="1" as="geometry" />
        </mxCell>
        <mxCell id="R5uZomfJnm4MCFcjPCN--107" value="&lt;span style=&quot;color: rgb(40, 37, 61); font-family: &amp;quot;Recursive Variable&amp;quot;, arial, sans-serif; font-size: 14px; text-wrap-mode: nowrap; background-color: rgb(252, 228, 236);&quot;&gt;Safety Validator&lt;/span&gt;" style="rounded=0;whiteSpace=wrap;html=1;" vertex="1" parent="R5uZomfJnm4MCFcjPCN--104">
          <mxGeometry x="231.25" y="185" width="120" height="60" as="geometry" />
        </mxCell>
        <mxCell id="R5uZomfJnm4MCFcjPCN--118" style="edgeStyle=orthogonalEdgeStyle;rounded=0;orthogonalLoop=1;jettySize=auto;html=1;entryX=0.5;entryY=1;entryDx=0;entryDy=0;" edge="1" parent="R5uZomfJnm4MCFcjPCN--104" source="R5uZomfJnm4MCFcjPCN--110" target="R5uZomfJnm4MCFcjPCN--117">
          <mxGeometry relative="1" as="geometry" />
        </mxCell>
        <mxCell id="R5uZomfJnm4MCFcjPCN--110" value="Безопасный ответ?" style="rhombus;whiteSpace=wrap;html=1;fillColor=#e3c800;fontColor=#000000;strokeColor=#B09500;" vertex="1" parent="R5uZomfJnm4MCFcjPCN--104">
          <mxGeometry x="216.25" y="315" width="150" height="140" as="geometry" />
        </mxCell>
        <mxCell id="R5uZomfJnm4MCFcjPCN--112" value="Да" style="text;html=1;whiteSpace=wrap;strokeColor=#005700;fillColor=#008a00;align=center;verticalAlign=middle;rounded=0;fontColor=#ffffff;" vertex="1" parent="R5uZomfJnm4MCFcjPCN--104">
          <mxGeometry x="120" y="325" width="60" height="30" as="geometry" />
        </mxCell>
        <mxCell id="R5uZomfJnm4MCFcjPCN--113" value="Нет" style="text;html=1;whiteSpace=wrap;strokeColor=#B20000;fillColor=#e51400;align=center;verticalAlign=middle;rounded=0;fontColor=#ffffff;" vertex="1" parent="R5uZomfJnm4MCFcjPCN--104">
          <mxGeometry x="513" y="370" width="60" height="30" as="geometry" />
        </mxCell>
        <mxCell id="R5uZomfJnm4MCFcjPCN--116" value="Output Gateway" style="rounded=0;whiteSpace=wrap;html=1;fillColor=#1ba1e2;fontColor=#ffffff;strokeColor=#006EAF;" vertex="1" parent="R5uZomfJnm4MCFcjPCN--104">
          <mxGeometry x="70" y="485" width="120" height="60" as="geometry" />
        </mxCell>
        <mxCell id="R5uZomfJnm4MCFcjPCN--115" style="edgeStyle=orthogonalEdgeStyle;rounded=0;orthogonalLoop=1;jettySize=auto;html=1;entryX=0.5;entryY=0;entryDx=0;entryDy=0;" edge="1" parent="R5uZomfJnm4MCFcjPCN--104" source="R5uZomfJnm4MCFcjPCN--110" target="R5uZomfJnm4MCFcjPCN--116">
          <mxGeometry relative="1" as="geometry">
            <mxPoint x="130" y="455" as="targetPoint" />
          </mxGeometry>
        </mxCell>
        <mxCell id="R5uZomfJnm4MCFcjPCN--120" style="edgeStyle=orthogonalEdgeStyle;rounded=0;orthogonalLoop=1;jettySize=auto;html=1;entryX=1;entryY=0.5;entryDx=0;entryDy=0;" edge="1" parent="R5uZomfJnm4MCFcjPCN--104" source="R5uZomfJnm4MCFcjPCN--117" target="R5uZomfJnm4MCFcjPCN--106">
          <mxGeometry relative="1" as="geometry" />
        </mxCell>
        <mxCell id="R5uZomfJnm4MCFcjPCN--117" value="&lt;span style=&quot;color: rgb(40, 37, 61); font-family: &amp;quot;Recursive Variable&amp;quot;, arial, sans-serif; font-size: 14px; text-wrap-mode: nowrap; background-color: rgb(225, 245, 254);&quot;&gt;Response ReGenerator&lt;/span&gt;" style="rounded=0;whiteSpace=wrap;html=1;" vertex="1" parent="R5uZomfJnm4MCFcjPCN--104">
          <mxGeometry x="420" y="270" width="155" height="65" as="geometry" />
        </mxCell>
        <mxCell id="R5uZomfJnm4MCFcjPCN--124" style="edgeStyle=orthogonalEdgeStyle;rounded=0;orthogonalLoop=1;jettySize=auto;html=1;entryX=0.5;entryY=0;entryDx=0;entryDy=0;" edge="1" parent="R5uZomfJnm4MCFcjPCN--54" source="R5uZomfJnm4MCFcjPCN--122" target="R5uZomfJnm4MCFcjPCN--125">
          <mxGeometry relative="1" as="geometry">
            <mxPoint x="355" y="1010" as="targetPoint" />
          </mxGeometry>
        </mxCell>
        <mxCell id="R5uZomfJnm4MCFcjPCN--122" value="Уверенность &amp;lt; 0.2" style="rhombus;whiteSpace=wrap;html=1;fillColor=#e3c800;fontColor=#000000;strokeColor=#B09500;" vertex="1" parent="R5uZomfJnm4MCFcjPCN--54">
          <mxGeometry x="280" y="787.5" width="150" height="140" as="geometry" />
        </mxCell>
        <mxCell id="R5uZomfJnm4MCFcjPCN--125" value="&lt;span style=&quot;color: rgb(40, 37, 61); font-family: &amp;quot;Recursive Variable&amp;quot;, arial, sans-serif; font-size: 14px; text-wrap-mode: nowrap; background-color: rgb(255, 0, 128);&quot;&gt;Escalation Manager&lt;/span&gt;" style="rounded=0;whiteSpace=wrap;html=1;" vertex="1" parent="R5uZomfJnm4MCFcjPCN--54">
          <mxGeometry x="286" y="1050" width="140" height="60" as="geometry" />
        </mxCell>
        <mxCell id="R5uZomfJnm4MCFcjPCN--96" value="MCP" style="swimlane;whiteSpace=wrap;html=1;fillColor=#6a00ff;fontColor=#ffffff;strokeColor=#3700CC;" vertex="1" parent="1">
          <mxGeometry x="-2460" y="1340" width="470" height="440" as="geometry" />
        </mxCell>
        <mxCell id="R5uZomfJnm4MCFcjPCN--99" style="edgeStyle=orthogonalEdgeStyle;rounded=0;orthogonalLoop=1;jettySize=auto;html=1;entryX=0.5;entryY=0;entryDx=0;entryDy=0;" edge="1" parent="R5uZomfJnm4MCFcjPCN--96" source="R5uZomfJnm4MCFcjPCN--97" target="R5uZomfJnm4MCFcjPCN--98">
          <mxGeometry relative="1" as="geometry" />
        </mxCell>
        <mxCell id="R5uZomfJnm4MCFcjPCN--97" value="&lt;span style=&quot;color: rgb(40, 37, 61); font-family: &amp;quot;Recursive Variable&amp;quot;, arial, sans-serif; font-size: 14px; text-wrap-mode: nowrap; background-color: rgb(255, 255, 255);&quot;&gt;Tool Invocation Manager&lt;/span&gt;" style="rounded=0;whiteSpace=wrap;html=1;" vertex="1" parent="R5uZomfJnm4MCFcjPCN--96">
          <mxGeometry x="135" y="42.5" width="220" height="65" as="geometry" />
        </mxCell>
        <mxCell id="R5uZomfJnm4MCFcjPCN--102" style="edgeStyle=orthogonalEdgeStyle;rounded=0;orthogonalLoop=1;jettySize=auto;html=1;entryX=0.5;entryY=0;entryDx=0;entryDy=0;" edge="1" parent="R5uZomfJnm4MCFcjPCN--96" source="R5uZomfJnm4MCFcjPCN--98" target="R5uZomfJnm4MCFcjPCN--101">
          <mxGeometry relative="1" as="geometry">
            <mxPoint x="245" y="290" as="targetPoint" />
          </mxGeometry>
        </mxCell>
        <mxCell id="R5uZomfJnm4MCFcjPCN--98" value="&lt;span style=&quot;color: rgb(40, 37, 61); font-family: &amp;quot;Recursive Variable&amp;quot;, arial, sans-serif; font-size: 14px; text-wrap-mode: nowrap; background-color: rgb(255, 255, 255);&quot;&gt;Протокол контекста модели - MCP&lt;/span&gt;" style="rounded=0;whiteSpace=wrap;html=1;" vertex="1" parent="R5uZomfJnm4MCFcjPCN--96">
          <mxGeometry x="130" y="150" width="230" height="60" as="geometry" />
        </mxCell>
        <mxCell id="R5uZomfJnm4MCFcjPCN--101" value="&lt;span style=&quot;color: rgb(40, 37, 61); font-family: &amp;quot;Recursive Variable&amp;quot;, arial, sans-serif; font-size: 14px; text-wrap-mode: nowrap; background-color: rgb(243, 229, 245);&quot;&gt;External Tool Adapters - AD, SAP, CI/CD, ServiceNow&lt;/span&gt;" style="rounded=0;whiteSpace=wrap;html=1;fillColor=#d0cee2;strokeColor=#56517e;" vertex="1" parent="R5uZomfJnm4MCFcjPCN--96">
          <mxGeometry x="65" y="310" width="360" height="60" as="geometry" />
        </mxCell>
        <mxCell id="R5uZomfJnm4MCFcjPCN--126" value="Мониторинг и Анализ данных" style="swimlane;whiteSpace=wrap;html=1;fillColor=#d0cee2;strokeColor=#56517e;" vertex="1" parent="1">
          <mxGeometry x="-15" y="2350" width="880" height="400" as="geometry" />
        </mxCell>
        <mxCell id="R5uZomfJnm4MCFcjPCN--127" value="P0 queue depth" style="rounded=0;whiteSpace=wrap;html=1;" vertex="1" parent="R5uZomfJnm4MCFcjPCN--126">
          <mxGeometry x="36.25" y="60" width="120" height="60" as="geometry" />
        </mxCell>
        <mxCell id="R5uZomfJnm4MCFcjPCN--128" value="oldest task age" style="rounded=0;whiteSpace=wrap;html=1;" vertex="1" parent="R5uZomfJnm4MCFcjPCN--126">
          <mxGeometry x="200" y="60" width="120" height="60" as="geometry" />
        </mxCell>
        <mxCell id="R5uZomfJnm4MCFcjPCN--129" value="SLA-compliance" style="rounded=0;whiteSpace=wrap;html=1;" vertex="1" parent="R5uZomfJnm4MCFcjPCN--126">
          <mxGeometry x="360" y="60" width="120" height="60" as="geometry" />
        </mxCell>
        <mxCell id="R5uZomfJnm4MCFcjPCN--130" value="Mass-incident signal" style="rounded=0;whiteSpace=wrap;html=1;" vertex="1" parent="R5uZomfJnm4MCFcjPCN--126">
          <mxGeometry x="520" y="60" width="120" height="60" as="geometry" />
        </mxCell>
        <mxCell id="R5uZomfJnm4MCFcjPCN--131" value="CSAT" style="rounded=0;whiteSpace=wrap;html=1;" vertex="1" parent="R5uZomfJnm4MCFcjPCN--126">
          <mxGeometry x="680" y="60" width="120" height="60" as="geometry" />
        </mxCell>
        <mxCell id="R5uZomfJnm4MCFcjPCN--133" value="&lt;span style=&quot;color: rgb(40, 37, 61); font-family: &amp;quot;Recursive Variable&amp;quot;, arial, sans-serif; font-size: 14px; text-wrap-mode: nowrap; background-color: rgb(232, 245, 232);&quot;&gt;Health Indicators &amp;amp; Alerts - automation rate, triage accuracy, SLA compliance&lt;/span&gt;" style="rounded=0;whiteSpace=wrap;html=1;" vertex="1" parent="R5uZomfJnm4MCFcjPCN--126">
          <mxGeometry x="145" y="280" width="550" height="60" as="geometry" />
        </mxCell>
        <mxCell id="R5uZomfJnm4MCFcjPCN--134" style="edgeStyle=orthogonalEdgeStyle;rounded=0;orthogonalLoop=1;jettySize=auto;html=1;entryX=0.536;entryY=0.011;entryDx=0;entryDy=0;entryPerimeter=0;" edge="1" parent="R5uZomfJnm4MCFcjPCN--126" source="R5uZomfJnm4MCFcjPCN--127" target="R5uZomfJnm4MCFcjPCN--133">
          <mxGeometry relative="1" as="geometry" />
        </mxCell>
        <mxCell id="R5uZomfJnm4MCFcjPCN--135" style="edgeStyle=orthogonalEdgeStyle;rounded=0;orthogonalLoop=1;jettySize=auto;html=1;entryX=0.536;entryY=0.1;entryDx=0;entryDy=0;entryPerimeter=0;" edge="1" parent="R5uZomfJnm4MCFcjPCN--126" source="R5uZomfJnm4MCFcjPCN--129" target="R5uZomfJnm4MCFcjPCN--133">
          <mxGeometry relative="1" as="geometry" />
        </mxCell>
        <mxCell id="R5uZomfJnm4MCFcjPCN--136" style="edgeStyle=orthogonalEdgeStyle;rounded=0;orthogonalLoop=1;jettySize=auto;html=1;entryX=0.534;entryY=-0.078;entryDx=0;entryDy=0;entryPerimeter=0;" edge="1" parent="R5uZomfJnm4MCFcjPCN--126" source="R5uZomfJnm4MCFcjPCN--128" target="R5uZomfJnm4MCFcjPCN--133">
          <mxGeometry relative="1" as="geometry" />
        </mxCell>
        <mxCell id="R5uZomfJnm4MCFcjPCN--137" style="edgeStyle=orthogonalEdgeStyle;rounded=0;orthogonalLoop=1;jettySize=auto;html=1;entryX=0.532;entryY=0.056;entryDx=0;entryDy=0;entryPerimeter=0;" edge="1" parent="R5uZomfJnm4MCFcjPCN--126" source="R5uZomfJnm4MCFcjPCN--130" target="R5uZomfJnm4MCFcjPCN--133">
          <mxGeometry relative="1" as="geometry" />
        </mxCell>
        <mxCell id="R5uZomfJnm4MCFcjPCN--138" style="edgeStyle=orthogonalEdgeStyle;rounded=0;orthogonalLoop=1;jettySize=auto;html=1;entryX=0.536;entryY=-0.056;entryDx=0;entryDy=0;entryPerimeter=0;" edge="1" parent="R5uZomfJnm4MCFcjPCN--126" source="R5uZomfJnm4MCFcjPCN--131" target="R5uZomfJnm4MCFcjPCN--133">
          <mxGeometry relative="1" as="geometry" />
        </mxCell>
        <mxCell id="R5uZomfJnm4MCFcjPCN--140" value="Самообучение системы" style="swimlane;whiteSpace=wrap;html=1;fillColor=#fff2cc;gradientColor=#ffd966;strokeColor=#d6b656;" vertex="1" parent="1">
          <mxGeometry x="1700" y="540" width="870" height="890" as="geometry" />
        </mxCell>
        <mxCell id="R5uZomfJnm4MCFcjPCN--141" value="&lt;span style=&quot;color: rgb(40, 37, 61); font-family: &amp;quot;Recursive Variable&amp;quot;, arial, sans-serif; font-size: 14px; text-wrap-mode: nowrap; background-color: rgb(255, 255, 255);&quot;&gt;Learning Engine&lt;/span&gt;" style="rounded=0;whiteSpace=wrap;html=1;" vertex="1" parent="R5uZomfJnm4MCFcjPCN--140">
          <mxGeometry x="340" y="169.93" width="120" height="60" as="geometry" />
        </mxCell>
        <mxCell id="R5uZomfJnm4MCFcjPCN--145" style="edgeStyle=orthogonalEdgeStyle;rounded=0;orthogonalLoop=1;jettySize=auto;html=1;entryX=0.5;entryY=0;entryDx=0;entryDy=0;" edge="1" parent="R5uZomfJnm4MCFcjPCN--140" source="R5uZomfJnm4MCFcjPCN--142" target="R5uZomfJnm4MCFcjPCN--144">
          <mxGeometry relative="1" as="geometry" />
        </mxCell>
        <mxCell id="R5uZomfJnm4MCFcjPCN--147" style="edgeStyle=orthogonalEdgeStyle;rounded=0;orthogonalLoop=1;jettySize=auto;html=1;entryX=0;entryY=0.5;entryDx=0;entryDy=0;" edge="1" parent="R5uZomfJnm4MCFcjPCN--140" source="R5uZomfJnm4MCFcjPCN--142" target="R5uZomfJnm4MCFcjPCN--146">
          <mxGeometry relative="1" as="geometry" />
        </mxCell>
        <mxCell id="R5uZomfJnm4MCFcjPCN--142" value="Новые паттерны?" style="strokeWidth=2;html=1;shape=mxgraph.flowchart.decision;whiteSpace=wrap;fillColor=#e3c800;fontColor=#000000;strokeColor=#B09500;" vertex="1" parent="R5uZomfJnm4MCFcjPCN--140">
          <mxGeometry x="160" y="309.93" width="100" height="100" as="geometry" />
        </mxCell>
        <mxCell id="R5uZomfJnm4MCFcjPCN--143" style="edgeStyle=orthogonalEdgeStyle;rounded=0;orthogonalLoop=1;jettySize=auto;html=1;entryX=0.5;entryY=0;entryDx=0;entryDy=0;entryPerimeter=0;" edge="1" parent="R5uZomfJnm4MCFcjPCN--140" source="R5uZomfJnm4MCFcjPCN--141" target="R5uZomfJnm4MCFcjPCN--142">
          <mxGeometry relative="1" as="geometry" />
        </mxCell>
        <mxCell id="R5uZomfJnm4MCFcjPCN--144" value="&lt;span style=&quot;color: rgb(40, 37, 61); font-family: &amp;quot;Recursive Variable&amp;quot;, arial, sans-serif; font-size: 14px; text-wrap-mode: nowrap; background-color: rgb(255, 255, 255);&quot;&gt;Auto Knowledge Base Update&lt;/span&gt;" style="rounded=0;whiteSpace=wrap;html=1;" vertex="1" parent="R5uZomfJnm4MCFcjPCN--140">
          <mxGeometry x="85" y="529.9300000000001" width="250" height="70" as="geometry" />
        </mxCell>
        <mxCell id="R5uZomfJnm4MCFcjPCN--148" style="edgeStyle=orthogonalEdgeStyle;rounded=0;orthogonalLoop=1;jettySize=auto;html=1;entryX=1;entryY=0.5;entryDx=0;entryDy=0;" edge="1" parent="R5uZomfJnm4MCFcjPCN--140" source="R5uZomfJnm4MCFcjPCN--146" target="R5uZomfJnm4MCFcjPCN--141">
          <mxGeometry relative="1" as="geometry" />
        </mxCell>
        <mxCell id="R5uZomfJnm4MCFcjPCN--146" value="&lt;span style=&quot;color: rgb(40, 37, 61); font-family: &amp;quot;Recursive Variable&amp;quot;, arial, sans-serif; font-size: 14px; text-wrap-mode: nowrap; background-color: rgb(255, 255, 255);&quot;&gt;Model Retraining&lt;/span&gt;" style="rounded=0;whiteSpace=wrap;html=1;" vertex="1" parent="R5uZomfJnm4MCFcjPCN--140">
          <mxGeometry x="450" y="429.93" width="120" height="60" as="geometry" />
        </mxCell>
        <mxCell id="R5uZomfJnm4MCFcjPCN--149" value="Да" style="text;html=1;whiteSpace=wrap;strokeColor=#005700;fillColor=#008a00;align=center;verticalAlign=middle;rounded=0;fontColor=#ffffff;" vertex="1" parent="R5uZomfJnm4MCFcjPCN--140">
          <mxGeometry x="60" y="439.93" width="60" height="30" as="geometry" />
        </mxCell>
        <mxCell id="R5uZomfJnm4MCFcjPCN--150" value="Нет" style="text;html=1;whiteSpace=wrap;strokeColor=#B20000;fillColor=#e51400;align=center;verticalAlign=middle;rounded=0;fontColor=#ffffff;" vertex="1" parent="R5uZomfJnm4MCFcjPCN--140">
          <mxGeometry x="300" y="299.93" width="60" height="30" as="geometry" />
        </mxCell>
        <mxCell id="R5uZomfJnm4MCFcjPCN--153" style="edgeStyle=orthogonalEdgeStyle;rounded=0;orthogonalLoop=1;jettySize=auto;html=1;entryX=0.5;entryY=0;entryDx=0;entryDy=0;" edge="1" parent="R5uZomfJnm4MCFcjPCN--140" source="R5uZomfJnm4MCFcjPCN--151" target="R5uZomfJnm4MCFcjPCN--141">
          <mxGeometry relative="1" as="geometry" />
        </mxCell>
        <mxCell id="R5uZomfJnm4MCFcjPCN--151" value="Feedback Collector" style="ellipse;whiteSpace=wrap;html=1;aspect=fixed;fillColor=#76608a;fontColor=#ffffff;strokeColor=#432D57;" vertex="1" parent="R5uZomfJnm4MCFcjPCN--140">
          <mxGeometry x="360" y="30" width="80" height="80" as="geometry" />
        </mxCell>
        <mxCell id="R5uZomfJnm4MCFcjPCN--154" value="&lt;h2 style=&quot;font: 700 22px / 32px quote-cjk-patch, Inter, system-ui, -apple-system, BlinkMacSystemFont, &amp;quot;Segoe UI&amp;quot;, Roboto, Oxygen, Ubuntu, Cantarell, &amp;quot;Open Sans&amp;quot;, &amp;quot;Helvetica Neue&amp;quot;, sans-serif; margin: 32px 0px 16px; color: rgb(15, 17, 21); letter-spacing: normal; orphans: 2; text-align: start; text-indent: 0px; text-transform: none; widows: 2; word-spacing: 0px; -webkit-text-stroke-width: 0px; white-space: normal; background-color: rgb(255, 255, 255); text-decoration-thickness: initial; text-decoration-style: initial; text-decoration-color: initial;&quot;&gt;&lt;strong style=&quot;font-weight: inherit;&quot;&gt;&lt;span&gt;Входная точка&lt;/span&gt;&lt;/strong&gt;&lt;/h2&gt;&lt;ul style=&quot;margin: 16px 0px; padding-left: 18px; color: rgb(15, 17, 21); font-family: quote-cjk-patch, Inter, system-ui, -apple-system, BlinkMacSystemFont, &amp;quot;Segoe UI&amp;quot;, Roboto, Oxygen, Ubuntu, Cantarell, &amp;quot;Open Sans&amp;quot;, &amp;quot;Helvetica Neue&amp;quot;, sans-serif; font-size: 16px; font-style: normal; font-variant-ligatures: normal; font-variant-caps: normal; font-weight: 400; letter-spacing: normal; orphans: 2; text-align: start; text-indent: 0px; text-transform: none; widows: 2; word-spacing: 0px; -webkit-text-stroke-width: 0px; white-space: normal; background-color: rgb(255, 255, 255); text-decoration-thickness: initial; text-decoration-style: initial; text-decoration-color: initial;&quot;&gt;&lt;li&gt;&lt;p class=&quot;ds-markdown-paragraph&quot; style=&quot;margin-top: 0px !important; margin-right: 0px; margin-bottom: 0px; margin-left: 0px;&quot;&gt;&lt;strong style=&quot;font-weight: 600;&quot;&gt;&lt;span&gt;Unified Gateway&lt;/span&gt;&lt;/strong&gt;&lt;span&gt;&lt;span&gt;&amp;nbsp;&lt;/span&gt;- Единый шлюз для приема всех пользовательских запросов, обеспечивающий стандартизацию входящих данных&lt;/span&gt;&lt;/p&gt;&lt;/li&gt;&lt;/ul&gt;" style="text;whiteSpace=wrap;html=1;" vertex="1" parent="1">
          <mxGeometry x="-3260" y="80" width="550" height="140" as="geometry" />
        </mxCell>
        <mxCell id="R5uZomfJnm4MCFcjPCN--155" value="&lt;h2 style=&quot;font: 700 22px / 32px quote-cjk-patch, Inter, system-ui, -apple-system, BlinkMacSystemFont, &amp;quot;Segoe UI&amp;quot;, Roboto, Oxygen, Ubuntu, Cantarell, &amp;quot;Open Sans&amp;quot;, &amp;quot;Helvetica Neue&amp;quot;, sans-serif; margin: 32px 0px 16px; color: rgb(15, 17, 21); letter-spacing: normal; orphans: 2; text-align: start; text-indent: 0px; text-transform: none; widows: 2; word-spacing: 0px; -webkit-text-stroke-width: 0px; white-space: normal; background-color: rgb(255, 255, 255); text-decoration-thickness: initial; text-decoration-style: initial; text-decoration-color: initial;&quot;&gt;&lt;strong style=&quot;font-weight: inherit;&quot;&gt;&lt;span&gt;Безопасность и предобработка&lt;/span&gt;&lt;/strong&gt;&lt;/h2&gt;&lt;ul style=&quot;margin: 16px 0px; padding-left: 18px; color: rgb(15, 17, 21); font-family: quote-cjk-patch, Inter, system-ui, -apple-system, BlinkMacSystemFont, &amp;quot;Segoe UI&amp;quot;, Roboto, Oxygen, Ubuntu, Cantarell, &amp;quot;Open Sans&amp;quot;, &amp;quot;Helvetica Neue&amp;quot;, sans-serif; font-size: 16px; font-style: normal; font-variant-ligatures: normal; font-variant-caps: normal; font-weight: 400; letter-spacing: normal; orphans: 2; text-align: start; text-indent: 0px; text-transform: none; widows: 2; word-spacing: 0px; -webkit-text-stroke-width: 0px; white-space: normal; background-color: rgb(255, 255, 255); text-decoration-thickness: initial; text-decoration-style: initial; text-decoration-color: initial;&quot;&gt;&lt;li&gt;&lt;p class=&quot;ds-markdown-paragraph&quot; style=&quot;margin-top: 0px !important; margin-right: 0px; margin-bottom: 0px; margin-left: 0px;&quot;&gt;&lt;strong style=&quot;font-weight: 600;&quot;&gt;&lt;span&gt;Toxicity Detector&lt;/span&gt;&lt;/strong&gt;&lt;span&gt;&lt;span&gt;&amp;nbsp;&lt;/span&gt;- Анализирует запросы на наличие токсичности, оскорблений и неподобающего контента&lt;/span&gt;&lt;/p&gt;&lt;/li&gt;&lt;li style=&quot;margin-top: 6px;&quot;&gt;&lt;p class=&quot;ds-markdown-paragraph&quot; style=&quot;margin-top: 0px !important; margin-right: 0px; margin-bottom: 0px; margin-left: 0px;&quot;&gt;&lt;strong style=&quot;font-weight: 600;&quot;&gt;&lt;span&gt;De-escalation Agent&lt;/span&gt;&lt;/strong&gt;&lt;span&gt;&lt;span&gt;&amp;nbsp;&lt;/span&gt;- Снижает напряженность в общении при обнаружении токсичных запросов&lt;/span&gt;&lt;/p&gt;&lt;/li&gt;&lt;li style=&quot;margin-top: 6px;&quot;&gt;&lt;p class=&quot;ds-markdown-paragraph&quot; style=&quot;margin-top: 0px !important; margin-right: 0px; margin-bottom: 0px; margin-left: 0px;&quot;&gt;&lt;strong style=&quot;font-weight: 600;&quot;&gt;&lt;span&gt;Intent Classifier&lt;/span&gt;&lt;/strong&gt;&lt;span&gt;&lt;span&gt;&amp;nbsp;&lt;/span&gt;- Классифицирует намерения пользователя для определения типа запроса&lt;/span&gt;&lt;/p&gt;&lt;/li&gt;&lt;/ul&gt;" style="text;whiteSpace=wrap;html=1;" vertex="1" parent="1">
          <mxGeometry x="-3260" y="250" width="560" height="250" as="geometry" />
        </mxCell>
        <mxCell id="R5uZomfJnm4MCFcjPCN--156" value="&lt;h2 style=&quot;font: 700 22px / 32px quote-cjk-patch, Inter, system-ui, -apple-system, BlinkMacSystemFont, &amp;quot;Segoe UI&amp;quot;, Roboto, Oxygen, Ubuntu, Cantarell, &amp;quot;Open Sans&amp;quot;, &amp;quot;Helvetica Neue&amp;quot;, sans-serif; margin: 32px 0px 16px; color: rgb(15, 17, 21); letter-spacing: normal; orphans: 2; text-align: start; text-indent: 0px; text-transform: none; widows: 2; word-spacing: 0px; -webkit-text-stroke-width: 0px; white-space: normal; background-color: rgb(255, 255, 255); text-decoration-thickness: initial; text-decoration-style: initial; text-decoration-color: initial;&quot;&gt;&lt;strong style=&quot;font-weight: inherit;&quot;&gt;&lt;span&gt;Обнаружение инцидентов&lt;/span&gt;&lt;/strong&gt;&lt;/h2&gt;&lt;ul style=&quot;margin: 16px 0px; padding-left: 18px; color: rgb(15, 17, 21); font-family: quote-cjk-patch, Inter, system-ui, -apple-system, BlinkMacSystemFont, &amp;quot;Segoe UI&amp;quot;, Roboto, Oxygen, Ubuntu, Cantarell, &amp;quot;Open Sans&amp;quot;, &amp;quot;Helvetica Neue&amp;quot;, sans-serif; font-size: 16px; font-style: normal; font-variant-ligatures: normal; font-variant-caps: normal; font-weight: 400; letter-spacing: normal; orphans: 2; text-align: start; text-indent: 0px; text-transform: none; widows: 2; word-spacing: 0px; -webkit-text-stroke-width: 0px; white-space: normal; background-color: rgb(255, 255, 255); text-decoration-thickness: initial; text-decoration-style: initial; text-decoration-color: initial;&quot;&gt;&lt;li&gt;&lt;p class=&quot;ds-markdown-paragraph&quot; style=&quot;margin-top: 0px !important; margin-right: 0px; margin-bottom: 0px; margin-left: 0px;&quot;&gt;&lt;strong style=&quot;font-weight: 600;&quot;&gt;&lt;span&gt;Failure Detector&lt;/span&gt;&lt;/strong&gt;&lt;span&gt;&lt;span&gt;&amp;nbsp;&lt;/span&gt;- Мониторит системные сбои и ошибки в реальном времени&lt;/span&gt;&lt;/p&gt;&lt;/li&gt;&lt;li style=&quot;margin-top: 6px;&quot;&gt;&lt;p class=&quot;ds-markdown-paragraph&quot; style=&quot;margin-top: 0px !important; margin-right: 0px; margin-bottom: 0px; margin-left: 0px;&quot;&gt;&lt;strong style=&quot;font-weight: 600;&quot;&gt;&lt;span&gt;Mass Similarity Detector&lt;/span&gt;&lt;/strong&gt;&lt;span&gt;&lt;span&gt;&amp;nbsp;&lt;/span&gt;- Выявляет кластеры однотипных обращений для обнаружения массовых инцидентов&lt;/span&gt;&lt;/p&gt;&lt;/li&gt;&lt;li style=&quot;margin-top: 6px;&quot;&gt;&lt;p class=&quot;ds-markdown-paragraph&quot; style=&quot;margin-top: 0px !important; margin-right: 0px; margin-bottom: 0px; margin-left: 0px;&quot;&gt;&lt;strong style=&quot;font-weight: 600;&quot;&gt;&lt;span&gt;Mass Incident Manager&lt;/span&gt;&lt;/strong&gt;&lt;span&gt;&lt;span&gt;&amp;nbsp;&lt;/span&gt;- Управляет массовыми инцидентами, автоматизирует уведомления&lt;/span&gt;&lt;/p&gt;&lt;/li&gt;&lt;/ul&gt;" style="text;whiteSpace=wrap;html=1;" vertex="1" parent="1">
          <mxGeometry x="-3270" y="490" width="560" height="250" as="geometry" />
        </mxCell>
        <mxCell id="R5uZomfJnm4MCFcjPCN--157" value="&lt;h2 style=&quot;font: 700 22px / 32px quote-cjk-patch, Inter, system-ui, -apple-system, BlinkMacSystemFont, &amp;quot;Segoe UI&amp;quot;, Roboto, Oxygen, Ubuntu, Cantarell, &amp;quot;Open Sans&amp;quot;, &amp;quot;Helvetica Neue&amp;quot;, sans-serif; margin: 32px 0px 16px; color: rgb(15, 17, 21); letter-spacing: normal; orphans: 2; text-align: start; text-indent: 0px; text-transform: none; widows: 2; word-spacing: 0px; -webkit-text-stroke-width: 0px; white-space: normal; background-color: rgb(255, 255, 255); text-decoration-thickness: initial; text-decoration-style: initial; text-decoration-color: initial;&quot;&gt;&lt;strong style=&quot;font-weight: inherit;&quot;&gt;&lt;span&gt;Система приоритетов&lt;/span&gt;&lt;/strong&gt;&lt;/h2&gt;&lt;ul style=&quot;margin: 16px 0px; padding-left: 18px; color: rgb(15, 17, 21); font-family: quote-cjk-patch, Inter, system-ui, -apple-system, BlinkMacSystemFont, &amp;quot;Segoe UI&amp;quot;, Roboto, Oxygen, Ubuntu, Cantarell, &amp;quot;Open Sans&amp;quot;, &amp;quot;Helvetica Neue&amp;quot;, sans-serif; font-size: 16px; font-style: normal; font-variant-ligatures: normal; font-variant-caps: normal; font-weight: 400; letter-spacing: normal; orphans: 2; text-align: start; text-indent: 0px; text-transform: none; widows: 2; word-spacing: 0px; -webkit-text-stroke-width: 0px; white-space: normal; background-color: rgb(255, 255, 255); text-decoration-thickness: initial; text-decoration-style: initial; text-decoration-color: initial;&quot;&gt;&lt;li&gt;&lt;p class=&quot;ds-markdown-paragraph&quot; style=&quot;margin-top: 0px !important; margin-right: 0px; margin-bottom: 0px; margin-left: 0px;&quot;&gt;&lt;strong style=&quot;font-weight: 600;&quot;&gt;&lt;span&gt;Priority Assigner&lt;/span&gt;&lt;/strong&gt;&lt;span&gt;&lt;span&gt;&amp;nbsp;&lt;/span&gt;- Определяет приоритет на основе важности вопроса и роли отправителя&lt;/span&gt;&lt;/p&gt;&lt;/li&gt;&lt;li style=&quot;margin-top: 6px;&quot;&gt;&lt;p class=&quot;ds-markdown-paragraph&quot; style=&quot;margin-top: 0px !important; margin-right: 0px; margin-bottom: 0px; margin-left: 0px;&quot;&gt;&lt;strong style=&quot;font-weight: 600;&quot;&gt;&lt;span&gt;Priority Queue&lt;/span&gt;&lt;/strong&gt;&lt;span&gt;&lt;span&gt;&amp;nbsp;&lt;/span&gt;- Организует очередь обращений по buckets SLA&lt;/span&gt;&lt;/p&gt;&lt;/li&gt;&lt;li style=&quot;margin-top: 6px;&quot;&gt;&lt;p class=&quot;ds-markdown-paragraph&quot; style=&quot;margin-top: 0px !important; margin-right: 0px; margin-bottom: 0px; margin-left: 0px;&quot;&gt;&lt;strong style=&quot;font-weight: 600;&quot;&gt;&lt;span&gt;Fast-track Escalation&lt;/span&gt;&lt;/strong&gt;&lt;span&gt;&lt;span&gt;&amp;nbsp;&lt;/span&gt;- Обеспечивает ускоренную обработку высокоприоритетных запросов&lt;/span&gt;&lt;/p&gt;&lt;/li&gt;&lt;/ul&gt;" style="text;whiteSpace=wrap;html=1;" vertex="1" parent="1">
          <mxGeometry x="-2600" y="90" width="560" height="230" as="geometry" />
        </mxCell>
        <mxCell id="R5uZomfJnm4MCFcjPCN--158" value="&lt;h2 style=&quot;font: 700 22px / 32px quote-cjk-patch, Inter, system-ui, -apple-system, BlinkMacSystemFont, &amp;quot;Segoe UI&amp;quot;, Roboto, Oxygen, Ubuntu, Cantarell, &amp;quot;Open Sans&amp;quot;, &amp;quot;Helvetica Neue&amp;quot;, sans-serif; margin: 32px 0px 16px; color: rgb(15, 17, 21); letter-spacing: normal; orphans: 2; text-align: start; text-indent: 0px; text-transform: none; widows: 2; word-spacing: 0px; -webkit-text-stroke-width: 0px; white-space: normal; background-color: rgb(255, 255, 255); text-decoration-thickness: initial; text-decoration-style: initial; text-decoration-color: initial;&quot;&gt;&lt;strong style=&quot;font-weight: inherit;&quot;&gt;&lt;span&gt;Обработка намерений&lt;/span&gt;&lt;/strong&gt;&lt;/h2&gt;&lt;ul style=&quot;margin: 16px 0px; padding-left: 18px; color: rgb(15, 17, 21); font-family: quote-cjk-patch, Inter, system-ui, -apple-system, BlinkMacSystemFont, &amp;quot;Segoe UI&amp;quot;, Roboto, Oxygen, Ubuntu, Cantarell, &amp;quot;Open Sans&amp;quot;, &amp;quot;Helvetica Neue&amp;quot;, sans-serif; font-size: 16px; font-style: normal; font-variant-ligatures: normal; font-variant-caps: normal; font-weight: 400; letter-spacing: normal; orphans: 2; text-align: start; text-indent: 0px; text-transform: none; widows: 2; word-spacing: 0px; -webkit-text-stroke-width: 0px; white-space: normal; background-color: rgb(255, 255, 255); text-decoration-thickness: initial; text-decoration-style: initial; text-decoration-color: initial;&quot;&gt;&lt;li&gt;&lt;p class=&quot;ds-markdown-paragraph&quot; style=&quot;margin-top: 0px !important; margin-right: 0px; margin-bottom: 0px; margin-left: 0px;&quot;&gt;&lt;strong style=&quot;font-weight: 600;&quot;&gt;&lt;span&gt;Information Gap Analyzer&lt;/span&gt;&lt;/strong&gt;&lt;span&gt;&lt;span&gt;&amp;nbsp;&lt;/span&gt;- Выявляет недостающую информацию в запросе&lt;/span&gt;&lt;/p&gt;&lt;/li&gt;&lt;li style=&quot;margin-top: 6px;&quot;&gt;&lt;p class=&quot;ds-markdown-paragraph&quot; style=&quot;margin-top: 0px !important; margin-right: 0px; margin-bottom: 0px; margin-left: 0px;&quot;&gt;&lt;strong style=&quot;font-weight: 600;&quot;&gt;&lt;span&gt;Smart Query Generator&lt;/span&gt;&lt;/strong&gt;&lt;span&gt;&lt;span&gt;&amp;nbsp;&lt;/span&gt;- Формирует уточняющие вопросы для заполнения информационных пробелов&lt;/span&gt;&lt;/p&gt;&lt;/li&gt;&lt;li style=&quot;margin-top: 6px;&quot;&gt;&lt;p class=&quot;ds-markdown-paragraph&quot; style=&quot;margin-top: 0px !important; margin-right: 0px; margin-bottom: 0px; margin-left: 0px;&quot;&gt;&lt;strong style=&quot;font-weight: 600;&quot;&gt;&lt;span&gt;Knowledge Retrieval Agent&lt;/span&gt;&lt;/strong&gt;&lt;span&gt;&lt;span&gt;&amp;nbsp;&lt;/span&gt;- Извлекает релевантную информацию из базы знаний&lt;/span&gt;&lt;/p&gt;&lt;/li&gt;&lt;/ul&gt;" style="text;whiteSpace=wrap;html=1;" vertex="1" parent="1">
          <mxGeometry x="-2600" y="300" width="560" height="250" as="geometry" />
        </mxCell>
        <mxCell id="R5uZomfJnm4MCFcjPCN--159" value="&lt;h2 style=&quot;font: 700 22px / 32px quote-cjk-patch, Inter, system-ui, -apple-system, BlinkMacSystemFont, &amp;quot;Segoe UI&amp;quot;, Roboto, Oxygen, Ubuntu, Cantarell, &amp;quot;Open Sans&amp;quot;, &amp;quot;Helvetica Neue&amp;quot;, sans-serif; margin: 32px 0px 16px; color: rgb(15, 17, 21); letter-spacing: normal; orphans: 2; text-align: start; text-indent: 0px; text-transform: none; widows: 2; word-spacing: 0px; -webkit-text-stroke-width: 0px; white-space: normal; background-color: rgb(255, 255, 255); text-decoration-thickness: initial; text-decoration-style: initial; text-decoration-color: initial;&quot;&gt;&lt;strong style=&quot;font-weight: inherit;&quot;&gt;&lt;span&gt;Вызов инструментов&lt;/span&gt;&lt;/strong&gt;&lt;/h2&gt;&lt;ul style=&quot;margin: 16px 0px; padding-left: 18px; color: rgb(15, 17, 21); font-family: quote-cjk-patch, Inter, system-ui, -apple-system, BlinkMacSystemFont, &amp;quot;Segoe UI&amp;quot;, Roboto, Oxygen, Ubuntu, Cantarell, &amp;quot;Open Sans&amp;quot;, &amp;quot;Helvetica Neue&amp;quot;, sans-serif; font-size: 16px; font-style: normal; font-variant-ligatures: normal; font-variant-caps: normal; font-weight: 400; letter-spacing: normal; orphans: 2; text-align: start; text-indent: 0px; text-transform: none; widows: 2; word-spacing: 0px; -webkit-text-stroke-width: 0px; white-space: normal; background-color: rgb(255, 255, 255); text-decoration-thickness: initial; text-decoration-style: initial; text-decoration-color: initial;&quot;&gt;&lt;li&gt;&lt;p class=&quot;ds-markdown-paragraph&quot; style=&quot;margin-top: 0px !important; margin-right: 0px; margin-bottom: 0px; margin-left: 0px;&quot;&gt;&lt;strong style=&quot;font-weight: 600;&quot;&gt;&lt;span&gt;Tool Invocation Manager&lt;/span&gt;&lt;/strong&gt;&lt;span&gt;&lt;span&gt;&amp;nbsp;&lt;/span&gt;- Управляет вызовом внешних инструментов и сервисов&lt;/span&gt;&lt;/p&gt;&lt;/li&gt;&lt;li style=&quot;margin-top: 6px;&quot;&gt;&lt;p class=&quot;ds-markdown-paragraph&quot; style=&quot;margin-top: 0px !important; margin-right: 0px; margin-bottom: 0px; margin-left: 0px;&quot;&gt;&lt;strong style=&quot;font-weight: 600;&quot;&gt;&lt;span&gt;MCP (Model Context Protocol)&lt;/span&gt;&lt;/strong&gt;&lt;span&gt;&lt;span&gt;&amp;nbsp;&lt;/span&gt;- Обеспечивает стандартизированное взаимодействие с моделями&lt;/span&gt;&lt;/p&gt;&lt;/li&gt;&lt;li style=&quot;margin-top: 6px;&quot;&gt;&lt;p class=&quot;ds-markdown-paragraph&quot; style=&quot;margin-top: 0px !important; margin-right: 0px; margin-bottom: 0px; margin-left: 0px;&quot;&gt;&lt;strong style=&quot;font-weight: 600;&quot;&gt;&lt;span&gt;External Tool Adapters&lt;/span&gt;&lt;/strong&gt;&lt;span&gt;&lt;span&gt;&amp;nbsp;&lt;/span&gt;- Адаптеры для интеграции с AD, SAP, CI/CD, ServiceNow&lt;/span&gt;&lt;/p&gt;&lt;/li&gt;&lt;/ul&gt;" style="text;whiteSpace=wrap;html=1;" vertex="1" parent="1">
          <mxGeometry x="-2600" y="550" width="560" height="250" as="geometry" />
        </mxCell>
        <mxCell id="R5uZomfJnm4MCFcjPCN--160" value="&lt;h2 style=&quot;font: 700 22px / 32px quote-cjk-patch, Inter, system-ui, -apple-system, BlinkMacSystemFont, &amp;quot;Segoe UI&amp;quot;, Roboto, Oxygen, Ubuntu, Cantarell, &amp;quot;Open Sans&amp;quot;, &amp;quot;Helvetica Neue&amp;quot;, sans-serif; margin: 32px 0px 16px; color: rgb(15, 17, 21); letter-spacing: normal; orphans: 2; text-align: start; text-indent: 0px; text-transform: none; widows: 2; word-spacing: 0px; -webkit-text-stroke-width: 0px; white-space: normal; background-color: rgb(255, 255, 255); text-decoration-thickness: initial; text-decoration-style: initial; text-decoration-color: initial;&quot;&gt;&lt;strong style=&quot;font-weight: inherit;&quot;&gt;&lt;span&gt;Планирование и выполнение&lt;/span&gt;&lt;/strong&gt;&lt;/h2&gt;&lt;ul style=&quot;margin: 16px 0px; padding-left: 18px; color: rgb(15, 17, 21); font-family: quote-cjk-patch, Inter, system-ui, -apple-system, BlinkMacSystemFont, &amp;quot;Segoe UI&amp;quot;, Roboto, Oxygen, Ubuntu, Cantarell, &amp;quot;Open Sans&amp;quot;, &amp;quot;Helvetica Neue&amp;quot;, sans-serif; font-size: 16px; font-style: normal; font-variant-ligatures: normal; font-variant-caps: normal; font-weight: 400; letter-spacing: normal; orphans: 2; text-align: start; text-indent: 0px; text-transform: none; widows: 2; word-spacing: 0px; -webkit-text-stroke-width: 0px; white-space: normal; background-color: rgb(255, 255, 255); text-decoration-thickness: initial; text-decoration-style: initial; text-decoration-color: initial;&quot;&gt;&lt;li&gt;&lt;p class=&quot;ds-markdown-paragraph&quot; style=&quot;margin-top: 0px !important; margin-right: 0px; margin-bottom: 0px; margin-left: 0px;&quot;&gt;&lt;strong style=&quot;font-weight: 600;&quot;&gt;&lt;span&gt;Action Planner&lt;/span&gt;&lt;/strong&gt;&lt;span&gt;&lt;span&gt;&amp;nbsp;&lt;/span&gt;- Создает план действий на основе анализа запроса&lt;/span&gt;&lt;/p&gt;&lt;/li&gt;&lt;li style=&quot;margin-top: 6px;&quot;&gt;&lt;p class=&quot;ds-markdown-paragraph&quot; style=&quot;margin-top: 0px !important; margin-right: 0px; margin-bottom: 0px; margin-left: 0px;&quot;&gt;&lt;strong style=&quot;font-weight: 600;&quot;&gt;&lt;span&gt;Safety Validator&lt;/span&gt;&lt;/strong&gt;&lt;span&gt;&lt;span&gt;&amp;nbsp;&lt;/span&gt;- Проверяет безопасность запланированных действий&lt;/span&gt;&lt;/p&gt;&lt;/li&gt;&lt;li style=&quot;margin-top: 6px;&quot;&gt;&lt;p class=&quot;ds-markdown-paragraph&quot; style=&quot;margin-top: 0px !important; margin-right: 0px; margin-bottom: 0px; margin-left: 0px;&quot;&gt;&lt;strong style=&quot;font-weight: 600;&quot;&gt;&lt;span&gt;Action Corrector&lt;/span&gt;&lt;/strong&gt;&lt;span&gt;&lt;span&gt;&amp;nbsp;&lt;/span&gt;- Корректирует действия при нарушении правил безопасности&lt;/span&gt;&lt;/p&gt;&lt;/li&gt;&lt;li style=&quot;margin-top: 6px;&quot;&gt;&lt;p class=&quot;ds-markdown-paragraph&quot; style=&quot;margin-top: 0px !important; margin-right: 0px; margin-bottom: 0px; margin-left: 0px;&quot;&gt;&lt;strong style=&quot;font-weight: 600;&quot;&gt;&lt;span&gt;Action Executor&lt;/span&gt;&lt;/strong&gt;&lt;span&gt;&lt;span&gt;&amp;nbsp;&lt;/span&gt;- Выполняет утвержденные действия&lt;/span&gt;&lt;/p&gt;&lt;/li&gt;&lt;/ul&gt;" style="text;whiteSpace=wrap;html=1;" vertex="1" parent="1">
          <mxGeometry x="-1840" y="90" width="560" height="250" as="geometry" />
        </mxCell>
        <mxCell id="R5uZomfJnm4MCFcjPCN--161" value="&lt;h2 style=&quot;font: 700 22px / 32px quote-cjk-patch, Inter, system-ui, -apple-system, BlinkMacSystemFont, &amp;quot;Segoe UI&amp;quot;, Roboto, Oxygen, Ubuntu, Cantarell, &amp;quot;Open Sans&amp;quot;, &amp;quot;Helvetica Neue&amp;quot;, sans-serif; margin: 32px 0px 16px; color: rgb(15, 17, 21); letter-spacing: normal; orphans: 2; text-align: start; text-indent: 0px; text-transform: none; widows: 2; word-spacing: 0px; -webkit-text-stroke-width: 0px; white-space: normal; background-color: rgb(255, 255, 255); text-decoration-thickness: initial; text-decoration-style: initial; text-decoration-color: initial;&quot;&gt;&lt;strong style=&quot;font-weight: inherit;&quot;&gt;&lt;span&gt;Генерация ответа&lt;/span&gt;&lt;/strong&gt;&lt;/h2&gt;&lt;ul style=&quot;margin: 16px 0px; padding-left: 18px; color: rgb(15, 17, 21); font-family: quote-cjk-patch, Inter, system-ui, -apple-system, BlinkMacSystemFont, &amp;quot;Segoe UI&amp;quot;, Roboto, Oxygen, Ubuntu, Cantarell, &amp;quot;Open Sans&amp;quot;, &amp;quot;Helvetica Neue&amp;quot;, sans-serif; font-size: 16px; font-style: normal; font-variant-ligatures: normal; font-variant-caps: normal; font-weight: 400; letter-spacing: normal; orphans: 2; text-align: start; text-indent: 0px; text-transform: none; widows: 2; word-spacing: 0px; -webkit-text-stroke-width: 0px; white-space: normal; background-color: rgb(255, 255, 255); text-decoration-thickness: initial; text-decoration-style: initial; text-decoration-color: initial;&quot;&gt;&lt;li&gt;&lt;p class=&quot;ds-markdown-paragraph&quot; style=&quot;margin-top: 0px !important; margin-right: 0px; margin-bottom: 0px; margin-left: 0px;&quot;&gt;&lt;strong style=&quot;font-weight: 600;&quot;&gt;&lt;span&gt;Response Generator&lt;/span&gt;&lt;/strong&gt;&lt;span&gt;&lt;span&gt;&amp;nbsp;&lt;/span&gt;- Формирует финальный ответ пользователю&lt;/span&gt;&lt;/p&gt;&lt;/li&gt;&lt;li style=&quot;margin-top: 6px;&quot;&gt;&lt;p class=&quot;ds-markdown-paragraph&quot; style=&quot;margin-top: 0px !important; margin-right: 0px; margin-bottom: 0px; margin-left: 0px;&quot;&gt;&lt;strong style=&quot;font-weight: 600;&quot;&gt;&lt;span&gt;Response Safety Check&lt;/span&gt;&lt;/strong&gt;&lt;span&gt;&lt;span&gt;&amp;nbsp;&lt;/span&gt;- Проверяет ответ на соответствие политикам безопасности&lt;/span&gt;&lt;/p&gt;&lt;/li&gt;&lt;li style=&quot;margin-top: 6px;&quot;&gt;&lt;p class=&quot;ds-markdown-paragraph&quot; style=&quot;margin-top: 0px !important; margin-right: 0px; margin-bottom: 0px; margin-left: 0px;&quot;&gt;&lt;strong style=&quot;font-weight: 600;&quot;&gt;&lt;span&gt;Response Regenerator&lt;/span&gt;&lt;/strong&gt;&lt;span&gt;&lt;span&gt;&amp;nbsp;&lt;/span&gt;- Перегенерирует ответ при нарушении проверки безопасности&lt;/span&gt;&lt;/p&gt;&lt;/li&gt;&lt;/ul&gt;" style="text;whiteSpace=wrap;html=1;" vertex="1" parent="1">
          <mxGeometry x="-1840" y="350" width="560" height="230" as="geometry" />
        </mxCell>
        <mxCell id="R5uZomfJnm4MCFcjPCN--162" value="&lt;h2 style=&quot;font: 700 22px / 32px quote-cjk-patch, Inter, system-ui, -apple-system, BlinkMacSystemFont, &amp;quot;Segoe UI&amp;quot;, Roboto, Oxygen, Ubuntu, Cantarell, &amp;quot;Open Sans&amp;quot;, &amp;quot;Helvetica Neue&amp;quot;, sans-serif; margin: 32px 0px 16px; color: rgb(15, 17, 21); letter-spacing: normal; orphans: 2; text-align: start; text-indent: 0px; text-transform: none; widows: 2; word-spacing: 0px; -webkit-text-stroke-width: 0px; white-space: normal; background-color: rgb(255, 255, 255); text-decoration-thickness: initial; text-decoration-style: initial; text-decoration-color: initial;&quot;&gt;&lt;strong style=&quot;font-weight: inherit;&quot;&gt;&lt;span&gt;Эскалация&lt;/span&gt;&lt;/strong&gt;&lt;/h2&gt;&lt;ul style=&quot;margin: 16px 0px; padding-left: 18px; color: rgb(15, 17, 21); font-family: quote-cjk-patch, Inter, system-ui, -apple-system, BlinkMacSystemFont, &amp;quot;Segoe UI&amp;quot;, Roboto, Oxygen, Ubuntu, Cantarell, &amp;quot;Open Sans&amp;quot;, &amp;quot;Helvetica Neue&amp;quot;, sans-serif; font-size: 16px; font-style: normal; font-variant-ligatures: normal; font-variant-caps: normal; font-weight: 400; letter-spacing: normal; orphans: 2; text-align: start; text-indent: 0px; text-transform: none; widows: 2; word-spacing: 0px; -webkit-text-stroke-width: 0px; white-space: normal; background-color: rgb(255, 255, 255); text-decoration-thickness: initial; text-decoration-style: initial; text-decoration-color: initial;&quot;&gt;&lt;li&gt;&lt;p class=&quot;ds-markdown-paragraph&quot; style=&quot;margin-top: 0px !important; margin-right: 0px; margin-bottom: 0px; margin-left: 0px;&quot;&gt;&lt;strong style=&quot;font-weight: 600;&quot;&gt;&lt;span&gt;Escalation Manager&lt;/span&gt;&lt;/strong&gt;&lt;span&gt;&lt;span&gt;&amp;nbsp;&lt;/span&gt;- Управляет процессом эскалации к человеку-оператору&lt;/span&gt;&lt;/p&gt;&lt;/li&gt;&lt;/ul&gt;" style="text;whiteSpace=wrap;html=1;" vertex="1" parent="1">
          <mxGeometry x="-1840" y="630" width="560" height="160" as="geometry" />
        </mxCell>
        <mxCell id="R5uZomfJnm4MCFcjPCN--163" value="&lt;h2 style=&quot;font: 700 22px / 32px quote-cjk-patch, Inter, system-ui, -apple-system, BlinkMacSystemFont, &amp;quot;Segoe UI&amp;quot;, Roboto, Oxygen, Ubuntu, Cantarell, &amp;quot;Open Sans&amp;quot;, &amp;quot;Helvetica Neue&amp;quot;, sans-serif; margin: 32px 0px 16px; color: rgb(15, 17, 21); letter-spacing: normal; orphans: 2; text-align: start; text-indent: 0px; text-transform: none; widows: 2; word-spacing: 0px; -webkit-text-stroke-width: 0px; white-space: normal; background-color: rgb(255, 255, 255); text-decoration-thickness: initial; text-decoration-style: initial; text-decoration-color: initial;&quot;&gt;&lt;strong style=&quot;font-weight: inherit;&quot;&gt;&lt;span&gt;Обучение и улучшение&lt;/span&gt;&lt;/strong&gt;&lt;/h2&gt;&lt;ul style=&quot;margin: 16px 0px; padding-left: 18px; color: rgb(15, 17, 21); font-family: quote-cjk-patch, Inter, system-ui, -apple-system, BlinkMacSystemFont, &amp;quot;Segoe UI&amp;quot;, Roboto, Oxygen, Ubuntu, Cantarell, &amp;quot;Open Sans&amp;quot;, &amp;quot;Helvetica Neue&amp;quot;, sans-serif; font-size: 16px; font-style: normal; font-variant-ligatures: normal; font-variant-caps: normal; font-weight: 400; letter-spacing: normal; orphans: 2; text-align: start; text-indent: 0px; text-transform: none; widows: 2; word-spacing: 0px; -webkit-text-stroke-width: 0px; white-space: normal; background-color: rgb(255, 255, 255); text-decoration-thickness: initial; text-decoration-style: initial; text-decoration-color: initial;&quot;&gt;&lt;li&gt;&lt;p class=&quot;ds-markdown-paragraph&quot; style=&quot;margin-top: 0px !important; margin-right: 0px; margin-bottom: 0px; margin-left: 0px;&quot;&gt;&lt;strong style=&quot;font-weight: 600;&quot;&gt;&lt;span&gt;Feedback Collector&lt;/span&gt;&lt;/strong&gt;&lt;span&gt;&lt;span&gt;&amp;nbsp;&lt;/span&gt;- Собирает обратную связь от пользователей&lt;/span&gt;&lt;/p&gt;&lt;/li&gt;&lt;li style=&quot;margin-top: 6px;&quot;&gt;&lt;p class=&quot;ds-markdown-paragraph&quot; style=&quot;margin-top: 0px !important; margin-right: 0px; margin-bottom: 0px; margin-left: 0px;&quot;&gt;&lt;strong style=&quot;font-weight: 600;&quot;&gt;&lt;span&gt;Learning Engine&lt;/span&gt;&lt;/strong&gt;&lt;span&gt;&lt;span&gt;&amp;nbsp;&lt;/span&gt;- Анализирует данные для улучшения работы системы&lt;/span&gt;&lt;/p&gt;&lt;/li&gt;&lt;li style=&quot;margin-top: 6px;&quot;&gt;&lt;p class=&quot;ds-markdown-paragraph&quot; style=&quot;margin-top: 0px !important; margin-right: 0px; margin-bottom: 0px; margin-left: 0px;&quot;&gt;&lt;strong style=&quot;font-weight: 600;&quot;&gt;&lt;span&gt;New Pattern Detector&lt;/span&gt;&lt;/strong&gt;&lt;span&gt;&lt;span&gt;&amp;nbsp;&lt;/span&gt;- Выявляет новые паттерны в запросах&lt;/span&gt;&lt;/p&gt;&lt;/li&gt;&lt;li style=&quot;margin-top: 6px;&quot;&gt;&lt;p class=&quot;ds-markdown-paragraph&quot; style=&quot;margin-top: 0px !important; margin-right: 0px; margin-bottom: 0px; margin-left: 0px;&quot;&gt;&lt;strong style=&quot;font-weight: 600;&quot;&gt;&lt;span&gt;Auto Knowledge Base Update&lt;/span&gt;&lt;/strong&gt;&lt;span&gt;&lt;span&gt;&amp;nbsp;&lt;/span&gt;- Автоматически обновляет базу знаний&lt;/span&gt;&lt;/p&gt;&lt;/li&gt;&lt;li style=&quot;margin-top: 6px;&quot;&gt;&lt;p class=&quot;ds-markdown-paragraph&quot; style=&quot;margin-top: 0px !important; margin-right: 0px; margin-bottom: 0px; margin-left: 0px;&quot;&gt;&lt;strong style=&quot;font-weight: 600;&quot;&gt;&lt;span&gt;Model Retraining&lt;/span&gt;&lt;/strong&gt;&lt;span&gt;&lt;span&gt;&amp;nbsp;&lt;/span&gt;- Организует переобучение моделей&lt;/span&gt;&lt;/p&gt;&lt;/li&gt;&lt;/ul&gt;" style="text;whiteSpace=wrap;html=1;" vertex="1" parent="1">
          <mxGeometry x="-1120" y="85" width="560" height="280" as="geometry" />
        </mxCell>
        <mxCell id="R5uZomfJnm4MCFcjPCN--164" value="&lt;h2 style=&quot;font: 700 22px / 32px quote-cjk-patch, Inter, system-ui, -apple-system, BlinkMacSystemFont, &amp;quot;Segoe UI&amp;quot;, Roboto, Oxygen, Ubuntu, Cantarell, &amp;quot;Open Sans&amp;quot;, &amp;quot;Helvetica Neue&amp;quot;, sans-serif; margin: 32px 0px 16px; color: rgb(15, 17, 21); letter-spacing: normal; orphans: 2; text-align: start; text-indent: 0px; text-transform: none; widows: 2; word-spacing: 0px; -webkit-text-stroke-width: 0px; white-space: normal; background-color: rgb(255, 255, 255); text-decoration-thickness: initial; text-decoration-style: initial; text-decoration-color: initial;&quot;&gt;&lt;strong style=&quot;font-weight: inherit;&quot;&gt;&lt;span&gt;Мониторинг и аналитика&lt;/span&gt;&lt;/strong&gt;&lt;/h2&gt;&lt;ul style=&quot;margin: 16px 0px; padding-left: 18px; color: rgb(15, 17, 21); font-family: quote-cjk-patch, Inter, system-ui, -apple-system, BlinkMacSystemFont, &amp;quot;Segoe UI&amp;quot;, Roboto, Oxygen, Ubuntu, Cantarell, &amp;quot;Open Sans&amp;quot;, &amp;quot;Helvetica Neue&amp;quot;, sans-serif; font-size: 16px; font-style: normal; font-variant-ligatures: normal; font-variant-caps: normal; font-weight: 400; letter-spacing: normal; orphans: 2; text-align: start; text-indent: 0px; text-transform: none; widows: 2; word-spacing: 0px; -webkit-text-stroke-width: 0px; white-space: normal; background-color: rgb(255, 255, 255); text-decoration-thickness: initial; text-decoration-style: initial; text-decoration-color: initial;&quot;&gt;&lt;li&gt;&lt;p class=&quot;ds-markdown-paragraph&quot; style=&quot;margin-top: 0px !important; margin-right: 0px; margin-bottom: 0px; margin-left: 0px;&quot;&gt;&lt;strong style=&quot;font-weight: 600;&quot;&gt;&lt;span&gt;Health Indicators &amp;amp; Alerts&lt;/span&gt;&lt;/strong&gt;&lt;span&gt;&lt;span&gt;&amp;nbsp;&lt;/span&gt;- Мониторит ключевые метрики: automation rate, triage accuracy, SLA compliance&lt;/span&gt;&lt;/p&gt;&lt;/li&gt;&lt;li style=&quot;margin-top: 6px;&quot;&gt;&lt;p class=&quot;ds-markdown-paragraph&quot; style=&quot;margin-top: 0px !important; margin-right: 0px; margin-bottom: 0px; margin-left: 0px;&quot;&gt;&lt;strong style=&quot;font-weight: 600;&quot;&gt;&lt;span&gt;Anomaly Detector&lt;/span&gt;&lt;/strong&gt;&lt;span&gt;&lt;span&gt;&amp;nbsp;&lt;/span&gt;- Выявляет аномалии и дрейфы в работе системы&lt;/span&gt;&lt;/p&gt;&lt;/li&gt;&lt;li style=&quot;margin-top: 6px;&quot;&gt;&lt;p class=&quot;ds-markdown-paragraph&quot; style=&quot;margin-top: 0px !important; margin-right: 0px; margin-bottom: 0px; margin-left: 0px;&quot;&gt;&lt;strong style=&quot;font-weight: 600;&quot;&gt;&lt;span&gt;Explainability / Decision Trace&lt;/span&gt;&lt;/strong&gt;&lt;span&gt;&lt;span&gt;&amp;nbsp;&lt;/span&gt;- Обеспечивает прозрачность принятия решений&lt;/span&gt;&lt;/p&gt;&lt;/li&gt;&lt;/ul&gt;" style="text;whiteSpace=wrap;html=1;" vertex="1" parent="1">
          <mxGeometry x="-1120" y="340" width="560" height="230" as="geometry" />
        </mxCell>
        <mxCell id="R5uZomfJnm4MCFcjPCN--165" value="&lt;h2 style=&quot;font: 700 22px / 32px quote-cjk-patch, Inter, system-ui, -apple-system, BlinkMacSystemFont, &amp;quot;Segoe UI&amp;quot;, Roboto, Oxygen, Ubuntu, Cantarell, &amp;quot;Open Sans&amp;quot;, &amp;quot;Helvetica Neue&amp;quot;, sans-serif; margin: 32px 0px 16px; color: rgb(15, 17, 21); letter-spacing: normal; orphans: 2; text-align: start; text-indent: 0px; text-transform: none; widows: 2; word-spacing: 0px; -webkit-text-stroke-width: 0px; white-space: normal; background-color: rgb(255, 255, 255); text-decoration-thickness: initial; text-decoration-style: initial; text-decoration-color: initial;&quot;&gt;&lt;strong style=&quot;font-weight: inherit;&quot;&gt;&lt;span&gt;Данные и знания&lt;/span&gt;&lt;/strong&gt;&lt;/h2&gt;&lt;ul style=&quot;margin: 16px 0px; padding-left: 18px; color: rgb(15, 17, 21); font-family: quote-cjk-patch, Inter, system-ui, -apple-system, BlinkMacSystemFont, &amp;quot;Segoe UI&amp;quot;, Roboto, Oxygen, Ubuntu, Cantarell, &amp;quot;Open Sans&amp;quot;, &amp;quot;Helvetica Neue&amp;quot;, sans-serif; font-size: 16px; font-style: normal; font-variant-ligatures: normal; font-variant-caps: normal; font-weight: 400; letter-spacing: normal; orphans: 2; text-align: start; text-indent: 0px; text-transform: none; widows: 2; word-spacing: 0px; -webkit-text-stroke-width: 0px; white-space: normal; background-color: rgb(255, 255, 255); text-decoration-thickness: initial; text-decoration-style: initial; text-decoration-color: initial;&quot;&gt;&lt;li&gt;&lt;p class=&quot;ds-markdown-paragraph&quot; style=&quot;margin-top: 0px !important; margin-right: 0px; margin-bottom: 0px; margin-left: 0px;&quot;&gt;&lt;strong style=&quot;font-weight: 600;&quot;&gt;&lt;span&gt;Knowledge Base&lt;/span&gt;&lt;/strong&gt;&lt;span&gt;&lt;span&gt;&amp;nbsp;&lt;/span&gt;- Централизованное хранилище знаний&lt;/span&gt;&lt;/p&gt;&lt;/li&gt;&lt;li style=&quot;margin-top: 6px;&quot;&gt;&lt;p class=&quot;ds-markdown-paragraph&quot; style=&quot;margin-top: 0px !important; margin-right: 0px; margin-bottom: 0px; margin-left: 0px;&quot;&gt;&lt;strong style=&quot;font-weight: 600;&quot;&gt;&lt;span&gt;Vector DB&lt;/span&gt;&lt;/strong&gt;&lt;span&gt;&lt;span&gt;&amp;nbsp;&lt;/span&gt;- Векторная база для семантического поиска&lt;/span&gt;&lt;/p&gt;&lt;/li&gt;&lt;li style=&quot;margin-top: 6px;&quot;&gt;&lt;p class=&quot;ds-markdown-paragraph&quot; style=&quot;margin-top: 0px !important; margin-right: 0px; margin-bottom: 0px; margin-left: 0px;&quot;&gt;&lt;strong style=&quot;font-weight: 600;&quot;&gt;&lt;span&gt;Ticket History&lt;/span&gt;&lt;/strong&gt;&lt;span&gt;&lt;span&gt;&amp;nbsp;&lt;/span&gt;- Архив исторических обращений&lt;/span&gt;&lt;/p&gt;&lt;/li&gt;&lt;/ul&gt;" style="text;whiteSpace=wrap;html=1;" vertex="1" parent="1">
          <mxGeometry x="-1120" y="610" width="470" height="190" as="geometry" />
        </mxCell>
      </root>
    </mxGraphModel>
  </diagram>
</mxfile>
